<svg width="575" height="164" viewBox="0 0 575 164" fill="none" xmlns="http://www.w3.org/2000/svg">
<g clip-path="url(#clip0_1319_64)">
<path d="M123.514 30.9358C123.467 30.5904 123.302 30.2719 123.047 30.0341C122.792 29.7964 122.463 29.654 122.115 29.631L110.168 29.4041C110.168 29.4041 100.717 20.1575 99.7148 19.212C99.2053 18.8738 98.6243 18.6584 98.0174 18.5829C97.4106 18.5075 96.7945 18.574 96.2177 18.7771L91.4352 20.2521C90.8547 18.2927 90.0888 16.3932 89.1479 14.5793C85.7642 8.11231 80.8115 4.68974 74.8192 4.68974H73.5716C73.4038 4.46907 73.2206 4.26055 73.0234 4.06573C71.7671 2.69284 70.2219 1.61602 68.4992 0.912976C66.7764 0.209929 64.9191 -0.101813 63.0613 0.000243753C55.311 0.227155 47.5985 5.82429 41.3604 15.7517C37.0159 22.6305 34.0616 30.2946 32.6649 38.3104L17.4099 43.0377C12.9298 44.4559 12.7975 44.5883 12.2115 48.8239C11.7389 52.1709 0 142.935 0 142.935L98.3916 159.954L141.037 149.383C141.037 149.383 123.627 31.73 123.514 30.9358ZM86.5203 21.7837L78.959 24.1474C78.9817 19.351 78.1825 14.5862 76.5961 10.06C82.3994 11.1756 85.2727 17.8128 86.5203 21.7837ZM73.7228 25.6979L57.2958 30.7845C58.7772 24.8495 61.6182 19.3404 65.5944 14.6927C67.1796 12.9556 69.1115 11.5706 71.2654 10.6272C73.1339 15.4223 73.9712 20.5575 73.7228 25.6979V25.6979ZM63.1937 5.27593C64.8309 5.19533 66.4535 5.61762 67.8439 6.48612C65.59 7.69888 63.5576 9.28443 61.8326 11.1756C56.5963 17.2644 53.079 24.6406 51.6438 32.5431L38.1468 36.722C40.8122 24.3175 51.2468 5.67302 63.1937 5.31374V5.27593Z" fill="#95BF46"/>
<path d="M122.115 29.6308L110.168 29.4039C110.168 29.4039 100.717 20.1572 99.7148 19.2118C99.343 18.884 98.8827 18.6735 98.3916 18.6067V159.953L141.037 149.383C141.037 149.383 123.627 31.6919 123.514 30.8977C123.459 30.5592 123.291 30.2494 123.036 30.0192C122.782 29.789 122.457 29.6521 122.115 29.6308V29.6308Z" fill="#5F8E3E"/>
<path d="M74.7624 51.5655L69.8097 70.0966C65.9787 68.55 61.8562 67.8595 57.7305 68.0733C48.1277 68.6973 48.0331 74.7483 48.1277 76.261C48.638 84.5622 70.4335 86.3586 71.6622 105.778C72.6263 121.057 63.5716 131.495 50.5095 132.251C46.1178 132.663 41.6885 132.153 37.5055 130.753C33.3225 129.352 29.4781 127.093 26.2188 124.12L29.5268 109.995C29.5268 109.995 38.2223 116.538 45.1598 116.103C45.9807 116.086 46.7899 115.905 47.5399 115.571C48.2899 115.237 48.9656 114.756 49.5274 114.158C50.0891 113.559 50.5256 112.853 50.8111 112.083C51.0966 111.313 51.2254 110.494 51.19 109.674V109.352C50.5095 98.5361 32.7404 99.1601 31.6251 81.4043C30.6799 66.4471 40.4907 51.3008 62.1539 49.9393C70.4902 49.4288 74.7624 51.5655 74.7624 51.5655V51.5655ZM198.806 91.1048C193.853 88.4197 191.244 86.1695 191.244 83.0494C191.244 79.0974 194.779 76.5636 200.28 76.5636C204.467 76.6663 208.594 77.578 212.435 79.2487L217.028 65.4071C217.028 65.4071 212.87 62.1736 200.639 62.1736C183.626 62.1736 171.831 71.9119 171.831 85.6211C171.831 93.3928 177.332 99.3114 184.685 103.547C190.621 106.951 192.738 109.352 192.738 112.888C192.738 116.424 189.77 119.525 184.25 119.525C178.671 119.327 173.204 117.9 168.239 115.346L163.438 129.188C169.279 132.518 175.923 134.18 182.643 133.991C200.167 133.991 212.737 125.368 212.737 109.825C212.794 101.335 206.424 95.4917 198.806 91.1048V91.1048ZM268.634 62.0034C264.646 62.0567 260.72 63.0113 257.152 64.7959C253.584 66.5805 250.466 69.1489 248.03 72.309L247.746 72.1766L255.308 33.0534H235.667L216.764 132.63H236.291L242.775 98.5928C245.327 85.7346 251.962 77.7927 258.181 77.7927C262.548 77.7927 264.249 80.7614 264.249 84.9971C264.25 87.8923 263.965 90.7805 263.398 93.6197L256.064 132.592H275.553L283.114 92.3339C283.965 88.1489 284.439 83.8963 284.532 79.6269C284.532 68.6406 278.729 62.0034 268.634 62.0034V62.0034ZM328.596 62.0034C305.137 62.0034 289.617 83.2007 289.617 106.781C289.617 121.908 298.936 134.048 316.441 134.048C339.465 134.048 355.004 113.418 355.004 89.2706C355.004 75.2777 346.8 62.0034 328.596 62.0034ZM318.993 119.128C312.339 119.128 309.541 113.456 309.541 106.421C309.541 95.2648 315.326 77.0363 325.93 77.0363C332.849 77.0363 335.098 82.9738 335.098 88.76C335.08 100.711 329.295 119.128 318.993 119.128V119.128ZM404.852 62.0034C391.619 62.0034 384.228 73.5948 384.228 73.5948H383.944L385.079 63.138H367.858C367.007 70.1911 365.457 80.9316 363.888 88.9869L350.334 160.332H369.824L375.192 131.589H375.608C379.138 133.424 383.089 134.298 387.064 134.123C409.936 134.123 424.87 110.676 424.87 86.8502C424.908 73.7461 419.105 62.0034 404.852 62.0034V62.0034ZM386.213 119.355C383.28 119.4 380.426 118.401 378.16 116.538L381.411 98.3281C383.661 86.1884 390.012 78.133 396.799 78.133C402.734 78.133 404.568 83.6356 404.568 88.8735C404.53 101.335 397.177 119.355 386.213 119.355V119.355ZM452.715 34.0366C451.255 34.0317 449.809 34.3143 448.458 34.8685C447.108 35.4227 445.88 36.2375 444.844 37.2665C443.808 38.2954 442.985 39.5183 442.422 40.8654C441.859 42.2125 441.567 43.6573 441.562 45.1175V45.3822C441.562 51.1684 445.248 55.1205 450.749 55.1205H451.032C453.948 55.2382 456.79 54.1927 458.935 52.214C461.08 50.2352 462.351 47.4853 462.469 44.5691V43.7749C462.532 42.5578 462.355 41.34 461.948 40.1914C461.54 39.0429 460.91 37.986 460.094 37.0814C459.277 36.1768 458.29 35.4422 457.189 34.9197C456.089 34.3972 454.896 34.0972 453.679 34.0366C453.358 34.0185 453.036 34.0185 452.715 34.0366V34.0366ZM425.475 132.648H444.964L458.234 63.554H438.613L425.475 132.648V132.648ZM507.799 63.5162H494.245L494.945 60.2638C496.079 53.6266 500.03 47.6891 506.532 47.6891C508.637 47.6939 510.729 48.0257 512.733 48.6724L516.513 33.4315C513.144 32.123 509.537 31.543 505.927 31.7297C498.995 31.5389 492.226 33.8476 486.854 38.2345C480.219 43.9073 477.119 52.0761 475.512 60.2638L474.945 63.5162H465.909L463.13 78.2087H472.166L461.807 132.724H481.296L491.693 78.1141H505.115L507.799 63.5162ZM554.679 63.5162C554.679 63.5162 542.505 94.2248 537.023 110.978H536.853C536.475 105.589 532.052 63.5162 532.052 63.5162H511.466L523.186 126.957C523.346 127.495 523.391 128.061 523.32 128.617C523.248 129.174 523.061 129.71 522.77 130.19C520.237 134.899 516.606 138.927 512.184 141.933C508.79 144.306 505.072 146.178 501.145 147.492L506.608 164C513.683 162.078 520.176 158.441 525.511 153.411C534.415 145.072 542.524 132.214 551.087 114.704L574.943 63.6485L554.679 63.5162Z" fill="white"/>
</g>
<defs>
<clipPath id="clip0_1319_64">
<rect width="575" height="164" fill="white"/>
</clipPath>
</defs>
</svg>
