<svg width="576" height="252" viewBox="0 0 576 252" fill="none" xmlns="http://www.w3.org/2000/svg">
<rect x="208.5" y="1.38458" width="159" height="40" stroke="#6A9953"/>
<path d="M265.586 25.8846H263.773L260.797 19.5174L259.938 17.4705V22.619V25.8846H258.641V15.6736H260.43L263.266 21.7049L264.289 24.0408V18.5721V15.6736H265.586V25.8846ZM274.383 21.5486C274.383 21.7414 274.38 21.9028 274.375 22.033C274.37 22.1632 274.362 22.2856 274.352 22.4002H268.844C268.844 23.2023 269.068 23.8195 269.516 24.2518C269.964 24.6789 270.609 24.8924 271.453 24.8924C271.682 24.8924 271.911 24.8846 272.141 24.869C272.37 24.8481 272.591 24.8221 272.805 24.7908C273.018 24.7596 273.221 24.7257 273.414 24.6893C273.612 24.6476 273.794 24.6033 273.961 24.5565V25.6736C273.591 25.7778 273.172 25.8611 272.703 25.9236C272.24 25.9914 271.758 26.0252 271.258 26.0252C270.586 26.0252 270.008 25.9341 269.523 25.7518C269.039 25.5695 268.641 25.3065 268.328 24.9627C268.021 24.6137 267.792 24.1893 267.641 23.6893C267.495 23.1841 267.422 22.6137 267.422 21.9783C267.422 21.4262 267.5 20.9054 267.656 20.4158C267.818 19.921 268.049 19.4887 268.352 19.119C268.659 18.744 269.034 18.4471 269.477 18.2283C269.919 18.0096 270.422 17.9002 270.984 17.9002C271.531 17.9002 272.016 17.9861 272.438 18.158C272.859 18.3299 273.214 18.5747 273.5 18.8924C273.792 19.2049 274.01 19.5877 274.156 20.0408C274.307 20.4887 274.383 20.9914 274.383 21.5486ZM272.969 21.3533C272.984 21.0044 272.951 20.6867 272.867 20.4002C272.784 20.1085 272.654 19.8585 272.477 19.6502C272.305 19.4419 272.089 19.2804 271.828 19.1658C271.568 19.046 271.266 18.9861 270.922 18.9861C270.625 18.9861 270.354 19.0434 270.109 19.158C269.865 19.2726 269.654 19.4341 269.477 19.6424C269.299 19.8507 269.156 20.1007 269.047 20.3924C268.938 20.6841 268.87 21.0044 268.844 21.3533H272.969ZM283.625 25.8846H281.82L279.703 22.8924L277.609 25.8846H275.852L278.891 21.9471L275.992 18.0408H277.734L279.797 21.0565L281.82 18.0408H283.5L280.555 21.9783L283.625 25.8846ZM291.672 25.7752C291.365 25.8533 291.047 25.908 290.719 25.9393C290.391 25.9757 290.057 25.994 289.719 25.994C288.734 25.994 288 25.7726 287.516 25.3299C287.031 24.882 286.789 24.1971 286.789 23.2752V19.1815H284.594V18.0408H286.789V15.8846L288.148 15.533V18.0408H291.672V19.1815H288.148V23.1658C288.148 23.7283 288.297 24.1502 288.594 24.4315C288.896 24.7075 289.339 24.8455 289.922 24.8455C290.172 24.8455 290.445 24.8273 290.742 24.7908C291.039 24.7492 291.349 24.6867 291.672 24.6033V25.7752ZM297.234 23.4236C297.411 23.4236 297.578 23.4575 297.734 23.5252C297.896 23.5929 298.034 23.6867 298.148 23.8065C298.268 23.9262 298.362 24.0669 298.43 24.2283C298.497 24.3846 298.531 24.5539 298.531 24.7361C298.531 24.9132 298.497 25.0799 298.43 25.2361C298.362 25.3924 298.268 25.5304 298.148 25.6502C298.034 25.7648 297.896 25.8559 297.734 25.9236C297.578 25.9914 297.411 26.0252 297.234 26.0252C297.052 26.0252 296.883 25.9914 296.727 25.9236C296.57 25.8559 296.432 25.7648 296.312 25.6502C296.198 25.5304 296.107 25.3924 296.039 25.2361C295.971 25.0799 295.938 24.9132 295.938 24.7361C295.938 24.5539 295.971 24.3846 296.039 24.2283C296.107 24.0669 296.198 23.9262 296.312 23.8065C296.432 23.6867 296.57 23.5929 296.727 23.5252C296.883 23.4575 297.052 23.4236 297.234 23.4236ZM308.258 18.0408V25.744C308.258 26.2908 308.18 26.7752 308.023 27.1971C307.867 27.6242 307.643 27.9835 307.352 28.2752C307.06 28.5669 306.701 28.7882 306.273 28.9393C305.852 29.0903 305.375 29.1658 304.844 29.1658C304.458 29.1658 304.081 29.1294 303.711 29.0565C303.346 28.9887 303.016 28.8924 302.719 28.7674V27.4705C302.88 27.5539 303.052 27.6294 303.234 27.6971C303.422 27.7648 303.612 27.8221 303.805 27.869C304.003 27.9158 304.201 27.9497 304.398 27.9705C304.596 27.9966 304.789 28.0096 304.977 28.0096C305.57 28.0096 306.036 27.8221 306.375 27.4471C306.714 27.0721 306.883 26.52 306.883 25.7908V19.1658H303.039V18.0408H308.258ZM307.438 14.7518C307.589 14.7518 307.729 14.7804 307.859 14.8377C307.99 14.8898 308.102 14.9653 308.195 15.0643C308.294 15.1632 308.37 15.2778 308.422 15.408C308.479 15.5382 308.508 15.6762 308.508 15.8221C308.508 15.9731 308.479 16.1137 308.422 16.244C308.37 16.369 308.294 16.4809 308.195 16.5799C308.102 16.6789 307.99 16.757 307.859 16.8143C307.729 16.8664 307.589 16.8924 307.438 16.8924C307.286 16.8924 307.146 16.8664 307.016 16.8143C306.885 16.757 306.771 16.6789 306.672 16.5799C306.578 16.4809 306.503 16.369 306.445 16.244C306.393 16.1137 306.367 15.9731 306.367 15.8221C306.367 15.6762 306.393 15.5382 306.445 15.408C306.503 15.2778 306.578 15.1632 306.672 15.0643C306.771 14.9653 306.885 14.8898 307.016 14.8377C307.146 14.7804 307.286 14.7518 307.438 14.7518ZM317.953 23.744C317.953 24.02 317.906 24.2674 317.812 24.4861C317.719 24.7049 317.591 24.9002 317.43 25.0721C317.268 25.2387 317.081 25.382 316.867 25.5018C316.654 25.6216 316.424 25.7205 316.18 25.7986C315.94 25.8768 315.693 25.9341 315.438 25.9705C315.182 26.007 314.932 26.0252 314.688 26.0252C314.156 26.0252 313.667 26.0018 313.219 25.9549C312.776 25.908 312.341 25.8325 311.914 25.7283V24.4783C312.372 24.6085 312.828 24.7075 313.281 24.7752C313.734 24.8429 314.185 24.8768 314.633 24.8768C315.284 24.8768 315.766 24.7882 316.078 24.6111C316.391 24.4341 316.547 24.1815 316.547 23.8533C316.547 23.7127 316.521 23.5877 316.469 23.4783C316.422 23.3637 316.333 23.257 316.203 23.158C316.073 23.0539 315.87 22.9471 315.594 22.8377C315.323 22.7283 314.951 22.6033 314.477 22.4627C314.122 22.3585 313.794 22.2414 313.492 22.1111C313.195 21.9757 312.938 21.8169 312.719 21.6346C312.5 21.4523 312.328 21.2387 312.203 20.994C312.078 20.7492 312.016 20.4601 312.016 20.1268C312.016 19.908 312.065 19.6684 312.164 19.408C312.268 19.1476 312.443 18.9054 312.688 18.6815C312.932 18.4575 313.263 18.2726 313.68 18.1268C314.096 17.9757 314.617 17.9002 315.242 17.9002C315.549 17.9002 315.891 17.9184 316.266 17.9549C316.641 17.9861 317.031 18.0434 317.438 18.1268V19.3377C317.01 19.2335 316.604 19.158 316.219 19.1111C315.839 19.0591 315.508 19.033 315.227 19.033C314.888 19.033 314.602 19.0591 314.367 19.1111C314.138 19.1632 313.951 19.2361 313.805 19.3299C313.664 19.4184 313.562 19.5252 313.5 19.6502C313.438 19.77 313.406 19.9002 313.406 20.0408C313.406 20.1815 313.432 20.3091 313.484 20.4236C313.542 20.5382 313.643 20.6502 313.789 20.7596C313.94 20.8637 314.148 20.9705 314.414 21.0799C314.68 21.1841 315.026 21.2986 315.453 21.4236C315.917 21.5591 316.307 21.7023 316.625 21.8533C316.943 21.9992 317.201 22.1632 317.398 22.3455C317.596 22.5278 317.737 22.7335 317.82 22.9627C317.909 23.1919 317.953 23.4523 317.953 23.744Z" fill="#6A9953"/>
<path d="M248.125 85.8846H246.894L246.316 84.0755H242.863L242.279 85.8846H241.105L243.86 77.5882H245.409L248.125 85.8846ZM245.993 83.0662L244.59 78.6292L243.187 83.0662H245.993ZM254.651 82.5838C254.651 83.1509 254.57 83.646 254.41 84.0692C254.253 84.4923 254.035 84.8436 253.756 85.1229C253.477 85.4022 253.146 85.6116 252.766 85.7513C252.385 85.8909 251.972 85.9608 251.528 85.9608C251.325 85.9608 251.122 85.9502 250.918 85.929C250.72 85.9079 250.516 85.8719 250.309 85.8211V88.4871H249.205V79.5115H250.188L250.258 80.5779C250.576 80.1421 250.914 79.8374 251.274 79.6639C251.634 79.4861 252.023 79.3973 252.442 79.3973C252.806 79.3973 253.125 79.4734 253.4 79.6258C253.675 79.7781 253.906 79.994 254.092 80.2733C254.278 80.5483 254.418 80.8826 254.511 81.2762C254.604 81.6655 254.651 82.1014 254.651 82.5838ZM253.521 82.6346C253.521 82.3003 253.496 81.9935 253.445 81.7142C253.398 81.4349 253.322 81.1958 253.216 80.9969C253.111 80.798 252.975 80.6435 252.81 80.5335C252.645 80.4193 252.448 80.3621 252.22 80.3621C252.08 80.3621 251.938 80.3854 251.794 80.4319C251.651 80.4743 251.5 80.5483 251.344 80.6541C251.191 80.7557 251.028 80.8932 250.855 81.0667C250.686 81.236 250.504 81.4476 250.309 81.7015V84.7928C250.512 84.8774 250.726 84.9451 250.95 84.9959C251.174 85.0425 251.395 85.0657 251.61 85.0657C252.207 85.0657 252.675 84.8647 253.013 84.4627C253.352 84.0565 253.521 83.4471 253.521 82.6346ZM261.9 82.6473C261.9 83.1424 261.83 83.5973 261.69 84.012C261.551 84.4225 261.35 84.7759 261.087 85.0721C260.825 85.3641 260.506 85.5926 260.129 85.7576C259.752 85.9184 259.325 85.9988 258.847 85.9988C258.39 85.9988 257.979 85.929 257.615 85.7894C257.256 85.6455 256.949 85.436 256.695 85.1609C256.445 84.8859 256.253 84.5452 256.117 84.139C255.986 83.7327 255.92 83.2651 255.92 82.7361C255.92 82.241 255.99 81.7903 256.13 81.3841C256.27 80.9736 256.471 80.6224 256.733 80.3304C256.995 80.0342 257.315 79.8056 257.691 79.6448C258.068 79.4798 258.495 79.3973 258.974 79.3973C259.431 79.3973 259.839 79.4692 260.199 79.6131C260.563 79.7527 260.869 79.9601 261.119 80.2352C261.373 80.506 261.566 80.8445 261.697 81.2508C261.832 81.657 261.9 82.1225 261.9 82.6473ZM260.77 82.6981C260.77 82.3045 260.726 81.9617 260.637 81.6697C260.552 81.3735 260.429 81.1281 260.269 80.9334C260.108 80.7345 259.911 80.5864 259.678 80.4891C259.45 80.3875 259.194 80.3367 258.91 80.3367C258.58 80.3367 258.297 80.4023 258.06 80.5335C257.827 80.6605 257.634 80.8318 257.482 81.0477C257.334 81.2635 257.224 81.5153 257.152 81.803C257.084 82.0866 257.05 82.3849 257.05 82.6981C257.05 83.0916 257.093 83.4365 257.177 83.7327C257.266 84.029 257.391 84.2765 257.552 84.4754C257.713 84.6701 257.907 84.8182 258.136 84.9197C258.364 85.0171 258.622 85.0657 258.91 85.0657C259.24 85.0657 259.522 85.0023 259.754 84.8753C259.991 84.7441 260.184 84.5706 260.332 84.3548C260.484 84.139 260.594 83.8893 260.662 83.6058C260.734 83.318 260.77 83.0154 260.77 82.6981ZM265.67 77.8231H263.785V76.9153H266.788V84.9642H268.686V85.8846H263.576V84.9642H265.67V77.8231ZM272.818 77.8231H270.933V76.9153H273.935V84.9642H275.833V85.8846H270.723V84.9642H272.818V77.8231ZM283.342 82.6473C283.342 83.1424 283.272 83.5973 283.133 84.012C282.993 84.4225 282.792 84.7759 282.53 85.0721C282.267 85.3641 281.948 85.5926 281.571 85.7576C281.195 85.9184 280.767 85.9988 280.289 85.9988C279.832 85.9988 279.422 85.929 279.058 85.7894C278.698 85.6455 278.391 85.436 278.137 85.1609C277.888 84.8859 277.695 84.5452 277.56 84.139C277.428 83.7327 277.363 83.2651 277.363 82.7361C277.363 82.241 277.433 81.7903 277.572 81.3841C277.712 80.9736 277.913 80.6224 278.175 80.3304C278.438 80.0342 278.757 79.8056 279.134 79.6448C279.51 79.4798 279.938 79.3973 280.416 79.3973C280.873 79.3973 281.281 79.4692 281.641 79.6131C282.005 79.7527 282.312 79.9601 282.562 80.2352C282.815 80.506 283.008 80.8445 283.139 81.2508C283.275 81.657 283.342 82.1225 283.342 82.6473ZM282.212 82.6981C282.212 82.3045 282.168 81.9617 282.079 81.6697C281.994 81.3735 281.872 81.1281 281.711 80.9334C281.55 80.7345 281.353 80.5864 281.121 80.4891C280.892 80.3875 280.636 80.3367 280.353 80.3367C280.022 80.3367 279.739 80.4023 279.502 80.5335C279.269 80.6605 279.077 80.8318 278.924 81.0477C278.776 81.2635 278.666 81.5153 278.594 81.803C278.527 82.0866 278.493 82.3849 278.493 82.6981C278.493 83.0916 278.535 83.4365 278.62 83.7327C278.708 84.029 278.833 84.2765 278.994 84.4754C279.155 84.6701 279.35 84.8182 279.578 84.9197C279.807 85.0171 280.065 85.0657 280.353 85.0657C280.683 85.0657 280.964 85.0023 281.197 84.8753C281.434 84.7441 281.626 84.5706 281.774 84.3548C281.927 84.139 282.037 83.8893 282.104 83.6058C282.176 83.318 282.212 83.0154 282.212 82.6981ZM297.39 85.5735C296.725 85.8486 296.029 85.9861 295.301 85.9861C294.129 85.9861 293.228 85.637 292.597 84.9388C291.971 84.2363 291.658 83.1995 291.658 81.8284C291.658 81.164 291.744 80.5631 291.918 80.0257C292.091 79.4883 292.339 79.0333 292.661 78.6609C292.982 78.2843 293.372 77.9944 293.829 77.7913C294.286 77.5882 294.798 77.4866 295.365 77.4866C295.75 77.4866 296.107 77.5205 296.438 77.5882C296.768 77.6517 297.085 77.7511 297.39 77.8865V78.9974C297.089 78.8323 296.778 78.7075 296.457 78.6229C296.135 78.534 295.784 78.4896 295.403 78.4896C295.014 78.4896 294.66 78.5636 294.343 78.7117C294.03 78.8556 293.763 79.0672 293.543 79.3465C293.323 79.6216 293.154 79.9601 293.035 80.3621C292.917 80.7599 292.857 81.2148 292.857 81.7269C292.857 82.8017 293.075 83.6121 293.511 84.158C293.947 84.7039 294.586 84.9769 295.428 84.9769C295.784 84.9769 296.124 84.9367 296.45 84.8563C296.776 84.7716 297.089 84.6553 297.39 84.5071V85.5735ZM301.408 77.8231H299.522V76.9153H302.525V84.9642H304.423V85.8846H299.313V84.9642H301.408V77.8231ZM308.555 80.4256H306.67V79.5115H309.672V84.9642H311.57V85.8846H306.46V84.9642H308.555V80.4256ZM308.942 76.8392C309.065 76.8392 309.179 76.8624 309.285 76.909C309.391 76.9513 309.482 77.0127 309.558 77.0931C309.639 77.1735 309.7 77.2666 309.742 77.3724C309.789 77.4739 309.812 77.5861 309.812 77.7088C309.812 77.8273 309.789 77.9394 309.742 78.0452C309.7 78.151 309.639 78.2441 309.558 78.3245C309.482 78.4049 309.391 78.4684 309.285 78.515C309.179 78.5573 309.065 78.5784 308.942 78.5784C308.82 78.5784 308.705 78.5573 308.6 78.515C308.494 78.4684 308.401 78.4049 308.32 78.3245C308.244 78.2441 308.183 78.151 308.136 78.0452C308.094 77.9394 308.073 77.8273 308.073 77.7088C308.073 77.5861 308.094 77.4739 308.136 77.3724C308.183 77.2666 308.244 77.1735 308.32 77.0931C308.401 77.0127 308.494 76.9513 308.6 76.909C308.705 76.8624 308.82 76.8392 308.942 76.8392ZM318.915 82.3616C318.915 82.5182 318.912 82.6494 318.908 82.7552C318.904 82.861 318.898 82.9604 318.889 83.0535H314.414C314.414 83.7052 314.596 84.2067 314.96 84.5579C315.324 84.9049 315.849 85.0784 316.534 85.0784C316.72 85.0784 316.907 85.0721 317.093 85.0594C317.279 85.0425 317.459 85.0213 317.632 84.9959C317.806 84.9705 317.971 84.943 318.127 84.9134C318.288 84.8795 318.436 84.8436 318.572 84.8055V85.7132C318.271 85.7978 317.931 85.8655 317.55 85.9163C317.173 85.9713 316.782 85.9988 316.375 85.9988C315.83 85.9988 315.36 85.9248 314.966 85.7767C314.573 85.6286 314.249 85.4149 313.995 85.1356C313.745 84.852 313.559 84.5071 313.437 84.1009C313.318 83.6904 313.259 83.227 313.259 82.7108C313.259 82.2622 313.322 81.839 313.449 81.4412C313.58 81.0392 313.769 80.688 314.014 80.3875C314.264 80.0828 314.569 79.8416 314.928 79.6639C315.288 79.4861 315.696 79.3973 316.153 79.3973C316.598 79.3973 316.991 79.4671 317.334 79.6068C317.677 79.7464 317.965 79.9453 318.197 80.2034C318.434 80.4573 318.612 80.7684 318.73 81.1365C318.853 81.5005 318.915 81.9088 318.915 82.3616ZM317.766 82.2029C317.778 81.9194 317.751 81.6613 317.683 81.4285C317.615 81.1915 317.51 80.9884 317.366 80.8192C317.226 80.6499 317.05 80.5187 316.839 80.4256C316.627 80.3283 316.382 80.2796 316.103 80.2796C315.861 80.2796 315.641 80.3262 315.442 80.4193C315.243 80.5123 315.072 80.6435 314.928 80.8128C314.784 80.9821 314.668 81.1852 314.579 81.4222C314.49 81.6592 314.435 81.9194 314.414 82.2029H317.766ZM320.679 79.5115H321.663L321.708 80.5399C321.894 80.3198 322.074 80.1378 322.247 79.994C322.421 79.8458 322.59 79.7274 322.755 79.6385C322.924 79.5496 323.096 79.4883 323.269 79.4544C323.443 79.4163 323.622 79.3973 323.809 79.3973C324.465 79.3973 324.96 79.5919 325.294 79.9813C325.632 80.3664 325.802 80.9482 325.802 81.7269V85.8846H324.697V81.8157C324.697 81.3164 324.604 80.9482 324.418 80.7112C324.232 80.47 323.955 80.3494 323.586 80.3494C323.451 80.3494 323.318 80.3706 323.187 80.4129C323.06 80.451 322.926 80.5208 322.787 80.6224C322.647 80.7197 322.495 80.853 322.33 81.0223C322.169 81.1915 321.987 81.4031 321.784 81.657V85.8846H320.679V79.5115ZM332.962 85.7957C332.712 85.8592 332.454 85.9036 332.188 85.929C331.921 85.9586 331.65 85.9734 331.375 85.9734C330.575 85.9734 329.979 85.7936 329.585 85.4339C329.191 85.07 328.995 84.5135 328.995 83.7645V80.4383H327.211V79.5115H328.995V77.7596L330.099 77.4739V79.5115H332.962V80.4383H330.099V83.6756C330.099 84.1326 330.22 84.4754 330.461 84.7039C330.706 84.9282 331.066 85.0403 331.54 85.0403C331.743 85.0403 331.965 85.0255 332.207 84.9959C332.448 84.9621 332.7 84.9113 332.962 84.8436V85.7957Z" fill="#C4C4C4"/>
<rect x="208.5" y="122.385" width="159" height="40" stroke="#FFAFAF"/>
<path d="M252.695 146.885H250.945L247.125 141.877V146.885H245.734V136.674H247.125V141.416L250.867 136.674H252.516L248.484 141.525L252.695 146.885ZM261.188 142.549C261.188 142.741 261.185 142.903 261.18 143.033C261.174 143.163 261.167 143.286 261.156 143.4H255.648C255.648 144.202 255.872 144.819 256.32 145.252C256.768 145.679 257.414 145.892 258.258 145.892C258.487 145.892 258.716 145.885 258.945 145.869C259.174 145.848 259.396 145.822 259.609 145.791C259.823 145.76 260.026 145.726 260.219 145.689C260.417 145.648 260.599 145.603 260.766 145.556V146.674C260.396 146.778 259.977 146.861 259.508 146.924C259.044 146.991 258.562 147.025 258.062 147.025C257.391 147.025 256.812 146.934 256.328 146.752C255.844 146.569 255.445 146.306 255.133 145.963C254.826 145.614 254.596 145.189 254.445 144.689C254.299 144.184 254.227 143.614 254.227 142.978C254.227 142.426 254.305 141.905 254.461 141.416C254.622 140.921 254.854 140.489 255.156 140.119C255.464 139.744 255.839 139.447 256.281 139.228C256.724 139.01 257.227 138.9 257.789 138.9C258.336 138.9 258.82 138.986 259.242 139.158C259.664 139.33 260.018 139.575 260.305 139.892C260.596 140.205 260.815 140.588 260.961 141.041C261.112 141.489 261.188 141.991 261.188 142.549ZM259.773 142.353C259.789 142.004 259.755 141.687 259.672 141.4C259.589 141.109 259.458 140.859 259.281 140.65C259.109 140.442 258.893 140.28 258.633 140.166C258.372 140.046 258.07 139.986 257.727 139.986C257.43 139.986 257.159 140.043 256.914 140.158C256.669 140.273 256.458 140.434 256.281 140.642C256.104 140.851 255.961 141.101 255.852 141.392C255.742 141.684 255.674 142.004 255.648 142.353H259.773ZM270.336 139.041L267.664 146.056C267.388 146.77 267.102 147.385 266.805 147.9C266.513 148.416 266.193 148.838 265.844 149.166C265.495 149.499 265.112 149.744 264.695 149.9C264.279 150.056 263.812 150.135 263.297 150.135C263.161 150.135 263.039 150.132 262.93 150.127C262.82 150.122 262.701 150.114 262.57 150.103V148.869C262.685 148.885 262.81 148.898 262.945 148.908C263.081 148.924 263.224 148.931 263.375 148.931C263.625 148.931 263.857 148.895 264.07 148.822C264.289 148.749 264.495 148.629 264.688 148.463C264.88 148.301 265.065 148.09 265.242 147.83C265.419 147.569 265.591 147.254 265.758 146.885L262.625 139.041H264.172L266.156 144.228L266.555 145.447L267.008 144.197L268.844 139.041H270.336ZM278.367 144.744C278.367 145.02 278.32 145.267 278.227 145.486C278.133 145.705 278.005 145.9 277.844 146.072C277.682 146.239 277.495 146.382 277.281 146.502C277.068 146.622 276.839 146.721 276.594 146.799C276.354 146.877 276.107 146.934 275.852 146.971C275.596 147.007 275.346 147.025 275.102 147.025C274.57 147.025 274.081 147.002 273.633 146.955C273.19 146.908 272.755 146.832 272.328 146.728V145.478C272.786 145.609 273.242 145.707 273.695 145.775C274.148 145.843 274.599 145.877 275.047 145.877C275.698 145.877 276.18 145.788 276.492 145.611C276.805 145.434 276.961 145.181 276.961 144.853C276.961 144.713 276.935 144.588 276.883 144.478C276.836 144.364 276.747 144.257 276.617 144.158C276.487 144.054 276.284 143.947 276.008 143.838C275.737 143.728 275.365 143.603 274.891 143.463C274.536 143.359 274.208 143.241 273.906 143.111C273.609 142.976 273.352 142.817 273.133 142.635C272.914 142.452 272.742 142.239 272.617 141.994C272.492 141.749 272.43 141.46 272.43 141.127C272.43 140.908 272.479 140.668 272.578 140.408C272.682 140.148 272.857 139.905 273.102 139.681C273.346 139.457 273.677 139.273 274.094 139.127C274.51 138.976 275.031 138.9 275.656 138.9C275.964 138.9 276.305 138.918 276.68 138.955C277.055 138.986 277.445 139.043 277.852 139.127V140.338C277.424 140.234 277.018 140.158 276.633 140.111C276.253 140.059 275.922 140.033 275.641 140.033C275.302 140.033 275.016 140.059 274.781 140.111C274.552 140.163 274.365 140.236 274.219 140.33C274.078 140.418 273.977 140.525 273.914 140.65C273.852 140.77 273.82 140.9 273.82 141.041C273.82 141.181 273.846 141.309 273.898 141.424C273.956 141.538 274.057 141.65 274.203 141.76C274.354 141.864 274.562 141.971 274.828 142.08C275.094 142.184 275.44 142.299 275.867 142.424C276.331 142.559 276.721 142.702 277.039 142.853C277.357 142.999 277.615 143.163 277.812 143.346C278.01 143.528 278.151 143.734 278.234 143.963C278.323 144.192 278.367 144.452 278.367 144.744ZM287.273 146.775C286.966 146.853 286.648 146.908 286.32 146.939C285.992 146.976 285.659 146.994 285.32 146.994C284.336 146.994 283.602 146.773 283.117 146.33C282.633 145.882 282.391 145.197 282.391 144.275V140.181H280.195V139.041H282.391V136.885L283.75 136.533V139.041H287.273V140.181H283.75V144.166C283.75 144.728 283.898 145.15 284.195 145.431C284.497 145.707 284.94 145.846 285.523 145.846C285.773 145.846 286.047 145.827 286.344 145.791C286.641 145.749 286.951 145.687 287.273 145.603V146.775ZM296.578 142.9C296.578 143.51 296.492 144.069 296.32 144.58C296.148 145.085 295.901 145.52 295.578 145.885C295.255 146.244 294.862 146.525 294.398 146.728C293.935 146.926 293.409 147.025 292.82 147.025C292.258 147.025 291.753 146.939 291.305 146.767C290.862 146.59 290.484 146.332 290.172 145.994C289.865 145.655 289.628 145.236 289.461 144.736C289.299 144.236 289.219 143.661 289.219 143.01C289.219 142.4 289.305 141.846 289.477 141.346C289.648 140.84 289.896 140.408 290.219 140.049C290.542 139.684 290.935 139.403 291.398 139.205C291.862 139.002 292.388 138.9 292.977 138.9C293.539 138.9 294.042 138.989 294.484 139.166C294.932 139.338 295.31 139.593 295.617 139.931C295.93 140.265 296.167 140.681 296.328 141.181C296.495 141.681 296.578 142.254 296.578 142.9ZM295.188 142.963C295.188 142.478 295.133 142.056 295.023 141.697C294.919 141.332 294.768 141.03 294.57 140.791C294.372 140.546 294.13 140.364 293.844 140.244C293.562 140.119 293.247 140.056 292.898 140.056C292.492 140.056 292.143 140.137 291.852 140.299C291.565 140.455 291.328 140.666 291.141 140.931C290.958 141.197 290.823 141.507 290.734 141.861C290.651 142.21 290.609 142.577 290.609 142.963C290.609 143.447 290.661 143.872 290.766 144.236C290.875 144.601 291.029 144.905 291.227 145.15C291.424 145.39 291.664 145.572 291.945 145.697C292.227 145.817 292.544 145.877 292.898 145.877C293.305 145.877 293.651 145.799 293.938 145.642C294.229 145.481 294.466 145.267 294.648 145.002C294.836 144.736 294.971 144.429 295.055 144.08C295.143 143.726 295.188 143.353 295.188 142.963ZM298.547 139.041H299.758L299.812 140.306C300.042 140.036 300.263 139.812 300.477 139.635C300.69 139.452 300.898 139.306 301.102 139.197C301.31 139.088 301.521 139.012 301.734 138.971C301.948 138.924 302.169 138.9 302.398 138.9C303.206 138.9 303.815 139.14 304.227 139.619C304.643 140.093 304.852 140.809 304.852 141.767V146.885H303.492V141.877C303.492 141.262 303.378 140.809 303.148 140.517C302.919 140.221 302.578 140.072 302.125 140.072C301.958 140.072 301.794 140.098 301.633 140.15C301.477 140.197 301.312 140.283 301.141 140.408C300.969 140.528 300.781 140.692 300.578 140.9C300.38 141.109 300.156 141.369 299.906 141.681V146.885H298.547V139.041ZM313.969 142.549C313.969 142.741 313.966 142.903 313.961 143.033C313.956 143.163 313.948 143.286 313.938 143.4H308.43C308.43 144.202 308.654 144.819 309.102 145.252C309.549 145.679 310.195 145.892 311.039 145.892C311.268 145.892 311.497 145.885 311.727 145.869C311.956 145.848 312.177 145.822 312.391 145.791C312.604 145.76 312.807 145.726 313 145.689C313.198 145.648 313.38 145.603 313.547 145.556V146.674C313.177 146.778 312.758 146.861 312.289 146.924C311.826 146.991 311.344 147.025 310.844 147.025C310.172 147.025 309.594 146.934 309.109 146.752C308.625 146.569 308.227 146.306 307.914 145.963C307.607 145.614 307.378 145.189 307.227 144.689C307.081 144.184 307.008 143.614 307.008 142.978C307.008 142.426 307.086 141.905 307.242 141.416C307.404 140.921 307.635 140.489 307.938 140.119C308.245 139.744 308.62 139.447 309.062 139.228C309.505 139.01 310.008 138.9 310.57 138.9C311.117 138.9 311.602 138.986 312.023 139.158C312.445 139.33 312.799 139.575 313.086 139.892C313.378 140.205 313.596 140.588 313.742 141.041C313.893 141.489 313.969 141.991 313.969 142.549ZM312.555 142.353C312.57 142.004 312.536 141.687 312.453 141.4C312.37 141.109 312.24 140.859 312.062 140.65C311.891 140.442 311.674 140.28 311.414 140.166C311.154 140.046 310.852 139.986 310.508 139.986C310.211 139.986 309.94 140.043 309.695 140.158C309.451 140.273 309.24 140.434 309.062 140.642C308.885 140.851 308.742 141.101 308.633 141.392C308.523 141.684 308.456 142.004 308.43 142.353H312.555ZM321.742 136.674V143.767C321.742 144.205 321.677 144.622 321.547 145.017C321.417 145.408 321.219 145.749 320.953 146.041C320.688 146.332 320.354 146.564 319.953 146.736C319.552 146.908 319.081 146.994 318.539 146.994C318.336 146.994 318.128 146.978 317.914 146.947C317.706 146.921 317.503 146.885 317.305 146.838C317.112 146.786 316.93 146.726 316.758 146.658C316.586 146.585 316.438 146.507 316.312 146.424V145.025C316.635 145.26 316.992 145.444 317.383 145.58C317.779 145.715 318.169 145.783 318.555 145.783C319.122 145.783 319.56 145.611 319.867 145.267C320.174 144.918 320.328 144.418 320.328 143.767V137.877H316.445V136.674H321.742ZM331.477 144.119C331.477 144.603 331.378 145.028 331.18 145.392C330.982 145.757 330.706 146.062 330.352 146.306C329.997 146.546 329.57 146.726 329.07 146.846C328.576 146.965 328.029 147.025 327.43 147.025C327.159 147.025 326.888 147.015 326.617 146.994C326.352 146.973 326.094 146.947 325.844 146.916C325.599 146.885 325.367 146.848 325.148 146.806C324.93 146.765 324.732 146.721 324.555 146.674V145.33C324.945 145.476 325.383 145.59 325.867 145.674C326.357 145.757 326.911 145.799 327.531 145.799C327.979 145.799 328.359 145.765 328.672 145.697C328.99 145.624 329.247 145.52 329.445 145.385C329.648 145.244 329.794 145.075 329.883 144.877C329.977 144.679 330.023 144.452 330.023 144.197C330.023 143.921 329.945 143.687 329.789 143.494C329.638 143.296 329.438 143.122 329.188 142.971C328.938 142.814 328.651 142.674 328.328 142.549C328.01 142.418 327.685 142.286 327.352 142.15C327.018 142.015 326.69 141.869 326.367 141.713C326.049 141.551 325.766 141.364 325.516 141.15C325.266 140.931 325.062 140.676 324.906 140.385C324.755 140.093 324.68 139.747 324.68 139.346C324.68 138.997 324.753 138.653 324.898 138.314C325.044 137.976 325.271 137.676 325.578 137.416C325.885 137.15 326.279 136.937 326.758 136.775C327.242 136.614 327.818 136.533 328.484 136.533C328.656 136.533 328.841 136.541 329.039 136.556C329.242 136.572 329.445 136.596 329.648 136.627C329.857 136.653 330.06 136.684 330.258 136.721C330.461 136.757 330.648 136.796 330.82 136.838V138.088C330.419 137.973 330.018 137.887 329.617 137.83C329.216 137.767 328.828 137.736 328.453 137.736C327.656 137.736 327.07 137.869 326.695 138.135C326.32 138.4 326.133 138.757 326.133 139.205C326.133 139.481 326.208 139.718 326.359 139.916C326.516 140.114 326.719 140.291 326.969 140.447C327.219 140.603 327.503 140.747 327.82 140.877C328.143 141.002 328.471 141.132 328.805 141.267C329.138 141.403 329.464 141.551 329.781 141.713C330.104 141.874 330.391 142.067 330.641 142.291C330.891 142.51 331.091 142.767 331.242 143.064C331.398 143.361 331.477 143.713 331.477 144.119Z" fill="#FFAFAF"/>
<rect x="416.5" y="122.385" width="159" height="40" stroke="#3EA6FF"/>
<path d="M477.898 144.119C477.898 144.603 477.799 145.028 477.602 145.392C477.404 145.757 477.128 146.062 476.773 146.306C476.419 146.546 475.992 146.726 475.492 146.846C474.997 146.965 474.451 147.025 473.852 147.025C473.581 147.025 473.31 147.015 473.039 146.994C472.773 146.973 472.516 146.947 472.266 146.916C472.021 146.885 471.789 146.848 471.57 146.806C471.352 146.765 471.154 146.721 470.977 146.674V145.33C471.367 145.476 471.805 145.59 472.289 145.674C472.779 145.757 473.333 145.799 473.953 145.799C474.401 145.799 474.781 145.765 475.094 145.697C475.411 145.624 475.669 145.52 475.867 145.385C476.07 145.244 476.216 145.075 476.305 144.877C476.398 144.679 476.445 144.452 476.445 144.197C476.445 143.921 476.367 143.687 476.211 143.494C476.06 143.296 475.859 143.122 475.609 142.971C475.359 142.814 475.073 142.674 474.75 142.549C474.432 142.418 474.107 142.286 473.773 142.15C473.44 142.015 473.112 141.869 472.789 141.713C472.471 141.551 472.188 141.364 471.938 141.15C471.688 140.931 471.484 140.676 471.328 140.385C471.177 140.093 471.102 139.747 471.102 139.346C471.102 138.997 471.174 138.653 471.32 138.314C471.466 137.976 471.693 137.676 472 137.416C472.307 137.15 472.701 136.937 473.18 136.775C473.664 136.614 474.24 136.533 474.906 136.533C475.078 136.533 475.263 136.541 475.461 136.556C475.664 136.572 475.867 136.596 476.07 136.627C476.279 136.653 476.482 136.684 476.68 136.721C476.883 136.757 477.07 136.796 477.242 136.838V138.088C476.841 137.973 476.44 137.887 476.039 137.83C475.638 137.767 475.25 137.736 474.875 137.736C474.078 137.736 473.492 137.869 473.117 138.135C472.742 138.4 472.555 138.757 472.555 139.205C472.555 139.481 472.63 139.718 472.781 139.916C472.938 140.114 473.141 140.291 473.391 140.447C473.641 140.603 473.924 140.747 474.242 140.877C474.565 141.002 474.893 141.132 475.227 141.267C475.56 141.403 475.885 141.551 476.203 141.713C476.526 141.874 476.812 142.067 477.062 142.291C477.312 142.51 477.513 142.767 477.664 143.064C477.82 143.361 477.898 143.713 477.898 144.119ZM486.477 146.775C486.169 146.853 485.852 146.908 485.523 146.939C485.195 146.976 484.862 146.994 484.523 146.994C483.539 146.994 482.805 146.773 482.32 146.33C481.836 145.882 481.594 145.197 481.594 144.275V140.181H479.398V139.041H481.594V136.885L482.953 136.533V139.041H486.477V140.181H482.953V144.166C482.953 144.728 483.102 145.15 483.398 145.431C483.701 145.707 484.143 145.846 484.727 145.846C484.977 145.846 485.25 145.827 485.547 145.791C485.844 145.749 486.154 145.687 486.477 145.603V146.775ZM489.273 139.041H490.516L490.555 140.486C491.018 139.929 491.474 139.525 491.922 139.275C492.375 139.025 492.831 138.9 493.289 138.9C494.102 138.9 494.716 139.163 495.133 139.689C495.555 140.215 495.75 140.997 495.719 142.033H494.344C494.359 141.346 494.258 140.848 494.039 140.541C493.826 140.228 493.51 140.072 493.094 140.072C492.911 140.072 492.727 140.106 492.539 140.174C492.357 140.236 492.167 140.34 491.969 140.486C491.776 140.627 491.57 140.809 491.352 141.033C491.133 141.257 490.898 141.528 490.648 141.846V146.885H489.273V139.041ZM500.422 140.166H498.102V139.041H501.797V145.752H504.133V146.885H497.844V145.752H500.422V140.166ZM500.898 135.752C501.049 135.752 501.19 135.78 501.32 135.838C501.451 135.89 501.562 135.965 501.656 136.064C501.755 136.163 501.831 136.278 501.883 136.408C501.94 136.533 501.969 136.671 501.969 136.822C501.969 136.968 501.94 137.106 501.883 137.236C501.831 137.366 501.755 137.481 501.656 137.58C501.562 137.679 501.451 137.757 501.32 137.814C501.19 137.866 501.049 137.892 500.898 137.892C500.747 137.892 500.607 137.866 500.477 137.814C500.346 137.757 500.232 137.679 500.133 137.58C500.039 137.481 499.964 137.366 499.906 137.236C499.854 137.106 499.828 136.968 499.828 136.822C499.828 136.671 499.854 136.533 499.906 136.408C499.964 136.278 500.039 136.163 500.133 136.064C500.232 135.965 500.346 135.89 500.477 135.838C500.607 135.78 500.747 135.752 500.898 135.752ZM513.25 142.822C513.25 143.52 513.151 144.129 512.953 144.65C512.76 145.171 512.492 145.603 512.148 145.947C511.805 146.291 511.398 146.549 510.93 146.721C510.461 146.892 509.953 146.978 509.406 146.978C509.156 146.978 508.906 146.965 508.656 146.939C508.411 146.913 508.161 146.869 507.906 146.806V150.088H506.547V139.041H507.758L507.844 140.353C508.234 139.817 508.651 139.442 509.094 139.228C509.536 139.01 510.016 138.9 510.531 138.9C510.979 138.9 511.372 138.994 511.711 139.181C512.049 139.369 512.333 139.635 512.562 139.978C512.792 140.317 512.964 140.728 513.078 141.213C513.193 141.692 513.25 142.228 513.25 142.822ZM511.859 142.885C511.859 142.473 511.828 142.096 511.766 141.752C511.708 141.408 511.615 141.114 511.484 140.869C511.354 140.624 511.188 140.434 510.984 140.299C510.781 140.158 510.539 140.088 510.258 140.088C510.086 140.088 509.911 140.116 509.734 140.174C509.557 140.226 509.372 140.317 509.18 140.447C508.992 140.572 508.792 140.741 508.578 140.955C508.37 141.163 508.146 141.424 507.906 141.736V145.541C508.156 145.645 508.419 145.728 508.695 145.791C508.971 145.848 509.242 145.877 509.508 145.877C510.242 145.877 510.818 145.629 511.234 145.135C511.651 144.635 511.859 143.885 511.859 142.885ZM521.969 142.549C521.969 142.741 521.966 142.903 521.961 143.033C521.956 143.163 521.948 143.286 521.938 143.4H516.43C516.43 144.202 516.654 144.819 517.102 145.252C517.549 145.679 518.195 145.892 519.039 145.892C519.268 145.892 519.497 145.885 519.727 145.869C519.956 145.848 520.177 145.822 520.391 145.791C520.604 145.76 520.807 145.726 521 145.689C521.198 145.648 521.38 145.603 521.547 145.556V146.674C521.177 146.778 520.758 146.861 520.289 146.924C519.826 146.991 519.344 147.025 518.844 147.025C518.172 147.025 517.594 146.934 517.109 146.752C516.625 146.569 516.227 146.306 515.914 145.963C515.607 145.614 515.378 145.189 515.227 144.689C515.081 144.184 515.008 143.614 515.008 142.978C515.008 142.426 515.086 141.905 515.242 141.416C515.404 140.921 515.635 140.489 515.938 140.119C516.245 139.744 516.62 139.447 517.062 139.228C517.505 139.01 518.008 138.9 518.57 138.9C519.117 138.9 519.602 138.986 520.023 139.158C520.445 139.33 520.799 139.575 521.086 139.892C521.378 140.205 521.596 140.588 521.742 141.041C521.893 141.489 521.969 141.991 521.969 142.549ZM520.555 142.353C520.57 142.004 520.536 141.687 520.453 141.4C520.37 141.109 520.24 140.859 520.062 140.65C519.891 140.442 519.674 140.28 519.414 140.166C519.154 140.046 518.852 139.986 518.508 139.986C518.211 139.986 517.94 140.043 517.695 140.158C517.451 140.273 517.24 140.434 517.062 140.642C516.885 140.851 516.742 141.101 516.633 141.392C516.523 141.684 516.456 142.004 516.43 142.353H520.555Z" fill="#3EA6FF"/>
<rect x="0.5" y="62.3846" width="159" height="40" stroke="#3EA6FF"/>
<path d="M44.2891 86.5018C43.4714 86.8403 42.6146 87.0096 41.7188 87.0096C40.276 87.0096 39.1667 86.5799 38.3906 85.7205C37.6198 84.8559 37.2344 83.5799 37.2344 81.8924C37.2344 81.0747 37.3411 80.3351 37.5547 79.6736C37.7682 79.0122 38.0729 78.4523 38.4688 77.994C38.8646 77.5304 39.3438 77.1736 39.9062 76.9236C40.4688 76.6736 41.099 76.5486 41.7969 76.5486C42.2708 76.5486 42.7109 76.5903 43.1172 76.6736C43.5234 76.7518 43.9141 76.8742 44.2891 77.0408V78.408C43.9193 78.2049 43.5365 78.0512 43.1406 77.9471C42.7448 77.8377 42.3125 77.783 41.8438 77.783C41.3646 77.783 40.9297 77.8742 40.5391 78.0565C40.1536 78.2335 39.8255 78.494 39.5547 78.8377C39.2839 79.1762 39.0755 79.5929 38.9297 80.0877C38.7839 80.5773 38.7109 81.1372 38.7109 81.7674C38.7109 83.0903 38.9792 84.0877 39.5156 84.7596C40.0521 85.4315 40.8385 85.7674 41.875 85.7674C42.3125 85.7674 42.7318 85.7179 43.1328 85.619C43.5339 85.5148 43.9193 85.3716 44.2891 85.1893V86.5018ZM49.2344 76.9627H46.9141V75.8455H50.6094V85.7518H52.9453V86.8846H46.6562V85.7518H49.2344V76.9627ZM62.1875 82.9002C62.1875 83.5096 62.1016 84.0695 61.9297 84.5799C61.7578 85.0851 61.5104 85.52 61.1875 85.8846C60.8646 86.244 60.4714 86.5252 60.0078 86.7283C59.5443 86.9262 59.0182 87.0252 58.4297 87.0252C57.8672 87.0252 57.362 86.9393 56.9141 86.7674C56.4714 86.5903 56.0938 86.3325 55.7812 85.994C55.474 85.6554 55.237 85.2361 55.0703 84.7361C54.9089 84.2361 54.8281 83.6606 54.8281 83.0096C54.8281 82.4002 54.9141 81.8455 55.0859 81.3455C55.2578 80.8403 55.5052 80.408 55.8281 80.0486C56.151 79.6841 56.5443 79.4028 57.0078 79.2049C57.4714 79.0018 57.9974 78.9002 58.5859 78.9002C59.1484 78.9002 59.651 78.9887 60.0938 79.1658C60.5417 79.3377 60.9193 79.5929 61.2266 79.9315C61.5391 80.2648 61.776 80.6815 61.9375 81.1815C62.1042 81.6815 62.1875 82.2544 62.1875 82.9002ZM60.7969 82.9627C60.7969 82.4783 60.7422 82.0565 60.6328 81.6971C60.5286 81.3325 60.3776 81.0304 60.1797 80.7908C59.9818 80.546 59.7396 80.3637 59.4531 80.244C59.1719 80.119 58.8568 80.0565 58.5078 80.0565C58.1016 80.0565 57.7526 80.1372 57.4609 80.2986C57.1745 80.4549 56.9375 80.6658 56.75 80.9315C56.5677 81.1971 56.4323 81.507 56.3438 81.8611C56.2604 82.2101 56.2188 82.5773 56.2188 82.9627C56.2188 83.4471 56.2708 83.8716 56.375 84.2361C56.4844 84.6007 56.638 84.9054 56.8359 85.1502C57.0339 85.3898 57.2734 85.5721 57.5547 85.6971C57.8359 85.8169 58.1536 85.8768 58.5078 85.8768C58.9141 85.8768 59.2604 85.7986 59.5469 85.6424C59.8385 85.4809 60.0755 85.2674 60.2578 85.0018C60.4453 84.7361 60.5807 84.4289 60.6641 84.0799C60.7526 83.7257 60.7969 83.3533 60.7969 82.9627ZM70.4609 86.8846H69.2422L69.1953 85.619C68.9609 85.8898 68.737 86.1164 68.5234 86.2986C68.3151 86.4757 68.1068 86.619 67.8984 86.7283C67.6901 86.8377 67.4792 86.9132 67.2656 86.9549C67.0573 87.0018 66.8359 87.0252 66.6016 87.0252C65.7943 87.0252 65.1849 86.7882 64.7734 86.3143C64.362 85.8403 64.1562 85.1242 64.1562 84.1658V79.0408H65.5156V84.0565C65.5156 85.2596 65.9688 85.8611 66.875 85.8611C67.0417 85.8611 67.2031 85.8377 67.3594 85.7908C67.5208 85.7387 67.6875 85.6528 67.8594 85.533C68.0365 85.408 68.224 85.2414 68.4219 85.033C68.625 84.8247 68.8516 84.5617 69.1016 84.244V79.0408H70.4609V86.8846ZM72.5547 83.1268C72.5547 82.4601 72.6458 81.869 72.8281 81.3533C73.0104 80.8325 73.2682 80.395 73.6016 80.0408C73.9401 79.6815 74.3438 79.4106 74.8125 79.2283C75.2865 79.0408 75.8125 78.9471 76.3906 78.9471C76.6406 78.9471 76.8854 78.9627 77.125 78.994C77.3698 79.0252 77.6094 79.0747 77.8438 79.1424V75.8455H79.2109V86.8846H77.9922L77.9453 85.4002C77.5651 85.9523 77.1536 86.3611 76.7109 86.6268C76.2682 86.8924 75.7891 87.0252 75.2734 87.0252C74.8255 87.0252 74.4297 86.9315 74.0859 86.744C73.7474 86.5565 73.4635 86.2934 73.2344 85.9549C73.0104 85.6111 72.8411 85.1997 72.7266 84.7205C72.612 84.2414 72.5547 83.7101 72.5547 83.1268ZM73.9453 83.0408C73.9453 83.9887 74.0833 84.6971 74.3594 85.1658C74.6406 85.6294 75.0365 85.8611 75.5469 85.8611C75.8906 85.8611 76.2526 85.7075 76.6328 85.4002C77.0182 85.0929 77.4219 84.6372 77.8438 84.033V80.3924C77.6198 80.2882 77.3724 80.2101 77.1016 80.158C76.8307 80.1007 76.5625 80.0721 76.2969 80.0721C75.5573 80.0721 74.9792 80.3117 74.5625 80.7908C74.151 81.27 73.9453 82.02 73.9453 83.0408ZM84.4219 80.1658H82.1016V79.0408H85.7969V85.7518H88.1328V86.8846H81.8438V85.7518H84.4219V80.1658ZM84.8984 75.7518C85.0495 75.7518 85.1901 75.7804 85.3203 75.8377C85.4505 75.8898 85.5625 75.9653 85.6562 76.0643C85.7552 76.1632 85.8307 76.2778 85.8828 76.408C85.9401 76.533 85.9688 76.671 85.9688 76.8221C85.9688 76.9679 85.9401 77.1059 85.8828 77.2361C85.8307 77.3664 85.7552 77.4809 85.6562 77.5799C85.5625 77.6789 85.4505 77.757 85.3203 77.8143C85.1901 77.8664 85.0495 77.8924 84.8984 77.8924C84.7474 77.8924 84.6068 77.8664 84.4766 77.8143C84.3464 77.757 84.2318 77.6789 84.1328 77.5799C84.0391 77.4809 83.9635 77.3664 83.9062 77.2361C83.8542 77.1059 83.8281 76.9679 83.8281 76.8221C83.8281 76.671 83.8542 76.533 83.9062 76.408C83.9635 76.2778 84.0391 76.1632 84.1328 76.0643C84.2318 75.9653 84.3464 75.8898 84.4766 75.8377C84.6068 75.7804 84.7474 75.7518 84.8984 75.7518ZM90.5469 79.0408H91.7578L91.8125 80.3065C92.0417 80.0356 92.263 79.8117 92.4766 79.6346C92.6901 79.4523 92.8984 79.3065 93.1016 79.1971C93.3099 79.0877 93.5208 79.0122 93.7344 78.9705C93.9479 78.9236 94.1693 78.9002 94.3984 78.9002C95.2057 78.9002 95.8151 79.1398 96.2266 79.619C96.6432 80.0929 96.8516 80.8091 96.8516 81.7674V86.8846H95.4922V81.8768C95.4922 81.2622 95.3776 80.8091 95.1484 80.5174C94.9193 80.2205 94.5781 80.0721 94.125 80.0721C93.9583 80.0721 93.7943 80.0981 93.6328 80.1502C93.4766 80.1971 93.3125 80.283 93.1406 80.408C92.9688 80.5278 92.7812 80.6919 92.5781 80.9002C92.3802 81.1085 92.1562 81.369 91.9062 81.6815V86.8846H90.5469V79.0408ZM104.383 86.8846L104.352 85.8299C103.924 86.2518 103.49 86.5565 103.047 86.744C102.609 86.9315 102.148 87.0252 101.664 87.0252C101.216 87.0252 100.833 86.9679 100.516 86.8533C100.198 86.7387 99.9349 86.5825 99.7266 86.3846C99.5234 86.1815 99.3724 85.9445 99.2734 85.6736C99.1797 85.4028 99.1328 85.1085 99.1328 84.7908C99.1328 84.0044 99.4245 83.3898 100.008 82.9471C100.596 82.4992 101.464 82.2752 102.609 82.2752H104.234V81.5877C104.234 81.1242 104.086 80.7544 103.789 80.4783C103.492 80.1971 103.039 80.0565 102.43 80.0565C101.987 80.0565 101.549 80.1059 101.117 80.2049C100.69 80.3039 100.247 80.4445 99.7891 80.6268V79.4002C99.9609 79.3377 100.151 79.2778 100.359 79.2205C100.573 79.158 100.797 79.1033 101.031 79.0565C101.266 79.0096 101.51 78.9731 101.766 78.9471C102.021 78.9158 102.279 78.9002 102.539 78.9002C103.013 78.9002 103.44 78.9523 103.82 79.0565C104.201 79.1606 104.521 79.3195 104.781 79.533C105.047 79.7466 105.25 80.0148 105.391 80.3377C105.531 80.6606 105.602 81.0408 105.602 81.4783V86.8846H104.383ZM104.234 83.3143H102.508C102.169 83.3143 101.878 83.3481 101.633 83.4158C101.388 83.4835 101.188 83.5799 101.031 83.7049C100.875 83.8299 100.758 83.9809 100.68 84.158C100.607 84.3299 100.57 84.5252 100.57 84.744C100.57 84.895 100.594 85.0408 100.641 85.1815C100.688 85.3169 100.763 85.4393 100.867 85.5486C100.971 85.6528 101.107 85.7361 101.273 85.7986C101.44 85.8611 101.643 85.8924 101.883 85.8924C102.195 85.8924 102.552 85.7986 102.953 85.6111C103.359 85.4184 103.786 85.1164 104.234 84.7049V83.3143ZM108.461 79.0408H109.703L109.742 80.4861C110.206 79.9289 110.661 79.5252 111.109 79.2752C111.562 79.0252 112.018 78.9002 112.477 78.9002C113.289 78.9002 113.904 79.1632 114.32 79.6893C114.742 80.2153 114.938 80.9966 114.906 82.033H113.531C113.547 81.3455 113.445 80.8481 113.227 80.5408C113.013 80.2283 112.698 80.0721 112.281 80.0721C112.099 80.0721 111.914 80.1059 111.727 80.1736C111.544 80.2361 111.354 80.3403 111.156 80.4861C110.964 80.6268 110.758 80.8091 110.539 81.033C110.32 81.257 110.086 81.5278 109.836 81.8455V86.8846H108.461V79.0408ZM123.914 79.0408L121.242 86.0565C120.966 86.77 120.68 87.3846 120.383 87.9002C120.091 88.4158 119.771 88.8377 119.422 89.1658C119.073 89.4992 118.69 89.744 118.273 89.9002C117.857 90.0565 117.391 90.1346 116.875 90.1346C116.74 90.1346 116.617 90.132 116.508 90.1268C116.398 90.1216 116.279 90.1137 116.148 90.1033V88.869C116.263 88.8846 116.388 88.8976 116.523 88.908C116.659 88.9236 116.802 88.9315 116.953 88.9315C117.203 88.9315 117.435 88.895 117.648 88.8221C117.867 88.7492 118.073 88.6294 118.266 88.4627C118.458 88.3012 118.643 88.0903 118.82 87.8299C118.997 87.5695 119.169 87.2544 119.336 86.8846L116.203 79.0408H117.75L119.734 84.2283L120.133 85.4471L120.586 84.1971L122.422 79.0408H123.914Z" fill="#3EA6FF"/>
<rect x="208.5" y="211.385" width="159" height="40" stroke="#3EA6FF"/>
<path d="M221.953 230.666C221.953 231.155 221.914 231.624 221.836 232.072C221.763 232.52 221.643 232.937 221.477 233.322C221.31 233.707 221.094 234.059 220.828 234.377C220.562 234.689 220.237 234.957 219.852 235.181C219.466 235.405 219.018 235.58 218.508 235.705C217.997 235.825 217.417 235.885 216.766 235.885H214.578V225.674H217.211C218.805 225.674 219.992 226.085 220.773 226.908C221.56 227.726 221.953 228.978 221.953 230.666ZM220.492 230.767C220.492 230.043 220.424 229.431 220.289 228.931C220.154 228.431 219.948 228.028 219.672 227.721C219.396 227.413 219.049 227.192 218.633 227.056C218.216 226.916 217.727 226.846 217.164 226.846H215.969V234.681H217.008C219.331 234.681 220.492 233.377 220.492 230.767ZM228.812 235.885L228.781 234.83C228.354 235.252 227.919 235.556 227.477 235.744C227.039 235.931 226.578 236.025 226.094 236.025C225.646 236.025 225.263 235.968 224.945 235.853C224.628 235.739 224.365 235.582 224.156 235.385C223.953 235.181 223.802 234.944 223.703 234.674C223.609 234.403 223.562 234.109 223.562 233.791C223.562 233.004 223.854 232.39 224.438 231.947C225.026 231.499 225.893 231.275 227.039 231.275H228.664V230.588C228.664 230.124 228.516 229.754 228.219 229.478C227.922 229.197 227.469 229.056 226.859 229.056C226.417 229.056 225.979 229.106 225.547 229.205C225.12 229.304 224.677 229.444 224.219 229.627V228.4C224.391 228.338 224.581 228.278 224.789 228.221C225.003 228.158 225.227 228.103 225.461 228.056C225.695 228.01 225.94 227.973 226.195 227.947C226.451 227.916 226.708 227.9 226.969 227.9C227.443 227.9 227.87 227.952 228.25 228.056C228.63 228.161 228.951 228.319 229.211 228.533C229.477 228.747 229.68 229.015 229.82 229.338C229.961 229.661 230.031 230.041 230.031 230.478V235.885H228.812ZM228.664 232.314H226.938C226.599 232.314 226.307 232.348 226.062 232.416C225.818 232.484 225.617 232.58 225.461 232.705C225.305 232.83 225.188 232.981 225.109 233.158C225.036 233.33 225 233.525 225 233.744C225 233.895 225.023 234.041 225.07 234.181C225.117 234.317 225.193 234.439 225.297 234.549C225.401 234.653 225.536 234.736 225.703 234.799C225.87 234.861 226.073 234.892 226.312 234.892C226.625 234.892 226.982 234.799 227.383 234.611C227.789 234.418 228.216 234.116 228.664 233.705V232.314ZM238.891 235.775C238.583 235.853 238.266 235.908 237.938 235.939C237.609 235.976 237.276 235.994 236.938 235.994C235.953 235.994 235.219 235.773 234.734 235.33C234.25 234.882 234.008 234.197 234.008 233.275V229.181H231.812V228.041H234.008V225.885L235.367 225.533V228.041H238.891V229.181H235.367V233.166C235.367 233.728 235.516 234.15 235.812 234.431C236.115 234.707 236.557 234.846 237.141 234.846C237.391 234.846 237.664 234.827 237.961 234.791C238.258 234.749 238.568 234.687 238.891 234.603V235.775ZM246.406 235.885L246.375 234.83C245.948 235.252 245.513 235.556 245.07 235.744C244.633 235.931 244.172 236.025 243.688 236.025C243.24 236.025 242.857 235.968 242.539 235.853C242.221 235.739 241.958 235.582 241.75 235.385C241.547 235.181 241.396 234.944 241.297 234.674C241.203 234.403 241.156 234.109 241.156 233.791C241.156 233.004 241.448 232.39 242.031 231.947C242.62 231.499 243.487 231.275 244.633 231.275H246.258V230.588C246.258 230.124 246.109 229.754 245.812 229.478C245.516 229.197 245.062 229.056 244.453 229.056C244.01 229.056 243.573 229.106 243.141 229.205C242.714 229.304 242.271 229.444 241.812 229.627V228.4C241.984 228.338 242.174 228.278 242.383 228.221C242.596 228.158 242.82 228.103 243.055 228.056C243.289 228.01 243.534 227.973 243.789 227.947C244.044 227.916 244.302 227.9 244.562 227.9C245.036 227.9 245.464 227.952 245.844 228.056C246.224 228.161 246.544 228.319 246.805 228.533C247.07 228.747 247.273 229.015 247.414 229.338C247.555 229.661 247.625 230.041 247.625 230.478V235.885H246.406ZM246.258 232.314H244.531C244.193 232.314 243.901 232.348 243.656 232.416C243.411 232.484 243.211 232.58 243.055 232.705C242.898 232.83 242.781 232.981 242.703 233.158C242.63 233.33 242.594 233.525 242.594 233.744C242.594 233.895 242.617 234.041 242.664 234.181C242.711 234.317 242.786 234.439 242.891 234.549C242.995 234.653 243.13 234.736 243.297 234.799C243.464 234.861 243.667 234.892 243.906 234.892C244.219 234.892 244.576 234.799 244.977 234.611C245.383 234.418 245.81 234.116 246.258 233.705V232.314ZM256.867 231.822C256.867 232.473 256.776 233.056 256.594 233.572C256.417 234.082 256.161 234.517 255.828 234.877C255.5 235.231 255.099 235.504 254.625 235.697C254.151 235.885 253.617 235.978 253.023 235.978C252.56 235.978 252.086 235.934 251.602 235.846C251.117 235.757 250.638 235.616 250.164 235.424V224.846H251.523V227.885L251.461 229.338C251.852 228.812 252.268 228.442 252.711 228.228C253.159 228.01 253.638 227.9 254.148 227.9C254.596 227.9 254.99 227.994 255.328 228.181C255.667 228.369 255.951 228.635 256.18 228.978C256.409 229.317 256.581 229.728 256.695 230.213C256.81 230.692 256.867 231.228 256.867 231.822ZM255.477 231.885C255.477 231.473 255.445 231.096 255.383 230.752C255.326 230.408 255.232 230.114 255.102 229.869C254.971 229.624 254.805 229.434 254.602 229.299C254.398 229.158 254.156 229.088 253.875 229.088C253.703 229.088 253.529 229.116 253.352 229.174C253.174 229.226 252.99 229.317 252.797 229.447C252.609 229.572 252.409 229.741 252.195 229.955C251.987 230.163 251.763 230.424 251.523 230.736V234.541C251.789 234.645 252.06 234.728 252.336 234.791C252.612 234.848 252.875 234.877 253.125 234.877C253.438 234.877 253.734 234.827 254.016 234.728C254.302 234.629 254.552 234.465 254.766 234.236C254.984 234.002 255.156 233.694 255.281 233.314C255.411 232.929 255.477 232.452 255.477 231.885ZM264 235.885L263.969 234.83C263.542 235.252 263.107 235.556 262.664 235.744C262.227 235.931 261.766 236.025 261.281 236.025C260.833 236.025 260.451 235.968 260.133 235.853C259.815 235.739 259.552 235.582 259.344 235.385C259.141 235.181 258.99 234.944 258.891 234.674C258.797 234.403 258.75 234.109 258.75 233.791C258.75 233.004 259.042 232.39 259.625 231.947C260.214 231.499 261.081 231.275 262.227 231.275H263.852V230.588C263.852 230.124 263.703 229.754 263.406 229.478C263.109 229.197 262.656 229.056 262.047 229.056C261.604 229.056 261.167 229.106 260.734 229.205C260.307 229.304 259.865 229.444 259.406 229.627V228.4C259.578 228.338 259.768 228.278 259.977 228.221C260.19 228.158 260.414 228.103 260.648 228.056C260.883 228.01 261.128 227.973 261.383 227.947C261.638 227.916 261.896 227.9 262.156 227.9C262.63 227.9 263.057 227.952 263.438 228.056C263.818 228.161 264.138 228.319 264.398 228.533C264.664 228.747 264.867 229.015 265.008 229.338C265.148 229.661 265.219 230.041 265.219 230.478V235.885H264ZM263.852 232.314H262.125C261.786 232.314 261.495 232.348 261.25 232.416C261.005 232.484 260.805 232.58 260.648 232.705C260.492 232.83 260.375 232.981 260.297 233.158C260.224 233.33 260.188 233.525 260.188 233.744C260.188 233.895 260.211 234.041 260.258 234.181C260.305 234.317 260.38 234.439 260.484 234.549C260.589 234.653 260.724 234.736 260.891 234.799C261.057 234.861 261.26 234.892 261.5 234.892C261.812 234.892 262.169 234.799 262.57 234.611C262.977 234.418 263.404 234.116 263.852 233.705V232.314ZM273.969 233.744C273.969 234.02 273.922 234.267 273.828 234.486C273.734 234.705 273.607 234.9 273.445 235.072C273.284 235.239 273.096 235.382 272.883 235.502C272.669 235.622 272.44 235.721 272.195 235.799C271.956 235.877 271.708 235.934 271.453 235.971C271.198 236.007 270.948 236.025 270.703 236.025C270.172 236.025 269.682 236.002 269.234 235.955C268.792 235.908 268.357 235.832 267.93 235.728V234.478C268.388 234.609 268.844 234.707 269.297 234.775C269.75 234.843 270.201 234.877 270.648 234.877C271.299 234.877 271.781 234.788 272.094 234.611C272.406 234.434 272.562 234.181 272.562 233.853C272.562 233.713 272.536 233.588 272.484 233.478C272.438 233.364 272.349 233.257 272.219 233.158C272.089 233.054 271.885 232.947 271.609 232.838C271.339 232.728 270.966 232.603 270.492 232.463C270.138 232.359 269.81 232.241 269.508 232.111C269.211 231.976 268.953 231.817 268.734 231.635C268.516 231.452 268.344 231.239 268.219 230.994C268.094 230.749 268.031 230.46 268.031 230.127C268.031 229.908 268.081 229.668 268.18 229.408C268.284 229.148 268.458 228.905 268.703 228.681C268.948 228.457 269.279 228.273 269.695 228.127C270.112 227.976 270.633 227.9 271.258 227.9C271.565 227.9 271.906 227.918 272.281 227.955C272.656 227.986 273.047 228.043 273.453 228.127V229.338C273.026 229.234 272.62 229.158 272.234 229.111C271.854 229.059 271.523 229.033 271.242 229.033C270.904 229.033 270.617 229.059 270.383 229.111C270.154 229.163 269.966 229.236 269.82 229.33C269.68 229.418 269.578 229.525 269.516 229.65C269.453 229.77 269.422 229.9 269.422 230.041C269.422 230.181 269.448 230.309 269.5 230.424C269.557 230.538 269.659 230.65 269.805 230.76C269.956 230.864 270.164 230.971 270.43 231.08C270.695 231.184 271.042 231.299 271.469 231.424C271.932 231.559 272.323 231.702 272.641 231.853C272.958 231.999 273.216 232.163 273.414 232.346C273.612 232.528 273.753 232.734 273.836 232.963C273.924 233.192 273.969 233.452 273.969 233.744ZM283.18 231.549C283.18 231.741 283.177 231.903 283.172 232.033C283.167 232.163 283.159 232.286 283.148 232.4H277.641C277.641 233.202 277.865 233.819 278.312 234.252C278.76 234.679 279.406 234.892 280.25 234.892C280.479 234.892 280.708 234.885 280.938 234.869C281.167 234.848 281.388 234.822 281.602 234.791C281.815 234.76 282.018 234.726 282.211 234.689C282.409 234.648 282.591 234.603 282.758 234.556V235.674C282.388 235.778 281.969 235.861 281.5 235.924C281.036 235.991 280.555 236.025 280.055 236.025C279.383 236.025 278.805 235.934 278.32 235.752C277.836 235.569 277.438 235.306 277.125 234.963C276.818 234.614 276.589 234.189 276.438 233.689C276.292 233.184 276.219 232.614 276.219 231.978C276.219 231.426 276.297 230.905 276.453 230.416C276.615 229.921 276.846 229.489 277.148 229.119C277.456 228.744 277.831 228.447 278.273 228.228C278.716 228.01 279.219 227.9 279.781 227.9C280.328 227.9 280.812 227.986 281.234 228.158C281.656 228.33 282.01 228.575 282.297 228.892C282.589 229.205 282.807 229.588 282.953 230.041C283.104 230.489 283.18 230.991 283.18 231.549ZM281.766 231.353C281.781 231.004 281.747 230.687 281.664 230.4C281.581 230.109 281.451 229.859 281.273 229.65C281.102 229.442 280.885 229.28 280.625 229.166C280.365 229.046 280.062 228.986 279.719 228.986C279.422 228.986 279.151 229.043 278.906 229.158C278.661 229.273 278.451 229.434 278.273 229.642C278.096 229.851 277.953 230.101 277.844 230.392C277.734 230.684 277.667 231.004 277.641 231.353H281.766ZM298.844 239.166C296.443 236.942 295.242 234.484 295.242 231.791C295.242 231.161 295.305 230.533 295.43 229.908C295.56 229.278 295.766 228.648 296.047 228.017C296.333 227.387 296.708 226.757 297.172 226.127C297.641 225.497 298.208 224.872 298.875 224.252L299.664 225.056C297.643 227.051 296.633 229.262 296.633 231.689C296.633 232.898 296.888 234.059 297.398 235.174C297.909 236.288 298.664 237.34 299.664 238.33L298.844 239.166ZM309.484 233.119C309.484 233.603 309.385 234.028 309.188 234.392C308.99 234.757 308.714 235.062 308.359 235.306C308.005 235.546 307.578 235.726 307.078 235.846C306.583 235.965 306.036 236.025 305.438 236.025C305.167 236.025 304.896 236.015 304.625 235.994C304.359 235.973 304.102 235.947 303.852 235.916C303.607 235.885 303.375 235.848 303.156 235.806C302.938 235.765 302.74 235.721 302.562 235.674V234.33C302.953 234.476 303.391 234.59 303.875 234.674C304.365 234.757 304.919 234.799 305.539 234.799C305.987 234.799 306.367 234.765 306.68 234.697C306.997 234.624 307.255 234.52 307.453 234.385C307.656 234.244 307.802 234.075 307.891 233.877C307.984 233.679 308.031 233.452 308.031 233.197C308.031 232.921 307.953 232.687 307.797 232.494C307.646 232.296 307.445 232.122 307.195 231.971C306.945 231.814 306.659 231.674 306.336 231.549C306.018 231.418 305.693 231.286 305.359 231.15C305.026 231.015 304.698 230.869 304.375 230.713C304.057 230.551 303.773 230.364 303.523 230.15C303.273 229.931 303.07 229.676 302.914 229.385C302.763 229.093 302.688 228.747 302.688 228.346C302.688 227.997 302.76 227.653 302.906 227.314C303.052 226.976 303.279 226.676 303.586 226.416C303.893 226.15 304.286 225.937 304.766 225.775C305.25 225.614 305.826 225.533 306.492 225.533C306.664 225.533 306.849 225.541 307.047 225.556C307.25 225.572 307.453 225.596 307.656 225.627C307.865 225.653 308.068 225.684 308.266 225.721C308.469 225.757 308.656 225.796 308.828 225.838V227.088C308.427 226.973 308.026 226.887 307.625 226.83C307.224 226.767 306.836 226.736 306.461 226.736C305.664 226.736 305.078 226.869 304.703 227.135C304.328 227.4 304.141 227.757 304.141 228.205C304.141 228.481 304.216 228.718 304.367 228.916C304.523 229.114 304.727 229.291 304.977 229.447C305.227 229.603 305.51 229.747 305.828 229.877C306.151 230.002 306.479 230.132 306.812 230.267C307.146 230.403 307.471 230.551 307.789 230.713C308.112 230.874 308.398 231.067 308.648 231.291C308.898 231.51 309.099 231.767 309.25 232.064C309.406 232.361 309.484 232.713 309.484 233.119ZM314.141 235.978C313.599 235.9 313.128 235.728 312.727 235.463C312.326 235.197 311.992 234.848 311.727 234.416C311.461 233.978 311.263 233.465 311.133 232.877C311.003 232.283 310.938 231.627 310.938 230.908C310.938 229.981 311.044 229.179 311.258 228.502C311.471 227.825 311.76 227.267 312.125 226.83C312.495 226.387 312.924 226.062 313.414 225.853C313.904 225.64 314.422 225.533 314.969 225.533C315.625 225.533 316.195 225.653 316.68 225.892C317.169 226.127 317.576 226.468 317.898 226.916C318.221 227.359 318.461 227.898 318.617 228.533C318.779 229.163 318.859 229.874 318.859 230.666C318.859 231.499 318.771 232.231 318.594 232.861C318.417 233.486 318.174 234.017 317.867 234.455C317.56 234.892 317.198 235.236 316.781 235.486C316.365 235.736 315.917 235.9 315.438 235.978C315.516 236.437 315.698 236.804 315.984 237.08C316.271 237.361 316.674 237.502 317.195 237.502C317.445 237.502 317.69 237.46 317.93 237.377C318.174 237.293 318.422 237.153 318.672 236.955L319.289 237.916C318.945 238.197 318.591 238.398 318.227 238.517C317.862 238.637 317.487 238.697 317.102 238.697C316.685 238.697 316.302 238.64 315.953 238.525C315.604 238.411 315.299 238.239 315.039 238.01C314.784 237.786 314.578 237.502 314.422 237.158C314.266 236.819 314.172 236.426 314.141 235.978ZM317.414 230.83C317.414 230.226 317.367 229.676 317.273 229.181C317.185 228.681 317.039 228.254 316.836 227.9C316.633 227.541 316.37 227.262 316.047 227.064C315.729 226.866 315.344 226.767 314.891 226.767C314.453 226.767 314.076 226.872 313.758 227.08C313.445 227.288 313.188 227.572 312.984 227.931C312.781 228.286 312.63 228.702 312.531 229.181C312.432 229.655 312.383 230.161 312.383 230.697C312.383 231.317 312.43 231.879 312.523 232.385C312.617 232.885 312.763 233.314 312.961 233.674C313.164 234.033 313.424 234.312 313.742 234.51C314.06 234.702 314.443 234.799 314.891 234.799C315.328 234.799 315.706 234.694 316.023 234.486C316.341 234.278 316.602 233.994 316.805 233.635C317.013 233.275 317.167 232.856 317.266 232.377C317.365 231.892 317.414 231.377 317.414 230.83ZM326.984 235.885H321.109V225.674H322.523V234.697H326.984V235.885ZM332.008 229.166H329.688V228.041H333.383V234.752H335.719V235.885H329.43V234.752H332.008V229.166ZM332.484 224.752C332.635 224.752 332.776 224.78 332.906 224.838C333.036 224.89 333.148 224.965 333.242 225.064C333.341 225.163 333.417 225.278 333.469 225.408C333.526 225.533 333.555 225.671 333.555 225.822C333.555 225.968 333.526 226.106 333.469 226.236C333.417 226.366 333.341 226.481 333.242 226.58C333.148 226.679 333.036 226.757 332.906 226.814C332.776 226.866 332.635 226.892 332.484 226.892C332.333 226.892 332.193 226.866 332.062 226.814C331.932 226.757 331.818 226.679 331.719 226.58C331.625 226.481 331.549 226.366 331.492 226.236C331.44 226.106 331.414 225.968 331.414 225.822C331.414 225.671 331.44 225.533 331.492 225.408C331.549 225.278 331.625 225.163 331.719 225.064C331.818 224.965 331.932 224.89 332.062 224.838C332.193 224.78 332.333 224.752 332.484 224.752ZM344.453 235.775C344.146 235.853 343.828 235.908 343.5 235.939C343.172 235.976 342.839 235.994 342.5 235.994C341.516 235.994 340.781 235.773 340.297 235.33C339.812 234.882 339.57 234.197 339.57 233.275V229.181H337.375V228.041H339.57V225.885L340.93 225.533V228.041H344.453V229.181H340.93V233.166C340.93 233.728 341.078 234.15 341.375 234.431C341.677 234.707 342.12 234.846 342.703 234.846C342.953 234.846 343.227 234.827 343.523 234.791C343.82 234.749 344.13 234.687 344.453 234.603V235.775ZM353.555 231.549C353.555 231.741 353.552 231.903 353.547 232.033C353.542 232.163 353.534 232.286 353.523 232.4H348.016C348.016 233.202 348.24 233.819 348.688 234.252C349.135 234.679 349.781 234.892 350.625 234.892C350.854 234.892 351.083 234.885 351.312 234.869C351.542 234.848 351.763 234.822 351.977 234.791C352.19 234.76 352.393 234.726 352.586 234.689C352.784 234.648 352.966 234.603 353.133 234.556V235.674C352.763 235.778 352.344 235.861 351.875 235.924C351.411 235.991 350.93 236.025 350.43 236.025C349.758 236.025 349.18 235.934 348.695 235.752C348.211 235.569 347.812 235.306 347.5 234.963C347.193 234.614 346.964 234.189 346.812 233.689C346.667 233.184 346.594 232.614 346.594 231.978C346.594 231.426 346.672 230.905 346.828 230.416C346.99 229.921 347.221 229.489 347.523 229.119C347.831 228.744 348.206 228.447 348.648 228.228C349.091 228.01 349.594 227.9 350.156 227.9C350.703 227.9 351.188 227.986 351.609 228.158C352.031 228.33 352.385 228.575 352.672 228.892C352.964 229.205 353.182 229.588 353.328 230.041C353.479 230.489 353.555 230.991 353.555 231.549ZM352.141 231.353C352.156 231.004 352.122 230.687 352.039 230.4C351.956 230.109 351.826 229.859 351.648 229.65C351.477 229.442 351.26 229.28 351 229.166C350.74 229.046 350.438 228.986 350.094 228.986C349.797 228.986 349.526 229.043 349.281 229.158C349.036 229.273 348.826 229.434 348.648 229.642C348.471 229.851 348.328 230.101 348.219 230.392C348.109 230.684 348.042 231.004 348.016 231.353H352.141ZM357.328 224.252C359.729 226.476 360.93 228.95 360.93 231.674C360.93 232.236 360.872 232.819 360.758 233.424C360.643 234.028 360.448 234.648 360.172 235.283C359.896 235.913 359.523 236.554 359.055 237.205C358.591 237.856 358.005 238.51 357.297 239.166L356.508 238.361C357.523 237.356 358.281 236.306 358.781 235.213C359.281 234.119 359.531 232.973 359.531 231.775C359.531 229.296 358.523 227.067 356.508 225.088L357.328 224.252Z" fill="#3EA6FF"/>
<path d="M80.6482 21.5301L80.6389 20.5301L79.6482 20.5394L79.6482 21.5301L80.6482 21.5301ZM207.158 20.3451L197.104 14.6655L197.213 26.212L207.158 20.3451ZM81.6482 61.8845L81.6482 21.5301L79.6482 21.5301L79.6482 61.8845L81.6482 61.8845ZM80.6576 22.53L198.168 21.4293L198.149 19.4294L80.6389 20.5301L80.6576 22.53Z" fill="#C4C4C4"/>
<path d="M206.82 143.885C207.373 143.885 207.82 143.437 207.82 142.885C207.82 142.332 207.373 141.885 206.82 141.885L206.82 143.885ZM78.8203 142.885L77.8203 142.885L77.8203 143.885L78.8203 143.885L78.8203 142.885ZM78.8203 102.885L73.0468 112.885L84.5938 112.885L78.8203 102.885ZM206.82 141.885L78.8203 141.885L78.8203 143.885L206.82 143.885L206.82 141.885ZM79.8203 142.885L79.8203 111.885L77.8203 111.885L77.8203 142.885L79.8203 142.885Z" fill="#C4C4C4"/>
<path d="M288 41.8846L282.226 51.8846H293.774L288 41.8846ZM287 50.8846V57.8846H289V50.8846H287ZM287 57.8846V73.8846H289V57.8846H287Z" fill="#C4C4C4"/>
<path d="M288 121.885L293.774 111.885L282.226 111.885L288 121.885ZM287 89.8846L287 105.885L289 105.885L289 89.8846L287 89.8846ZM287 105.885L287 112.885L289 112.885L289 105.885L287 105.885Z" fill="#C4C4C4"/>
<path d="M368 142.885L378 148.658V137.111L368 142.885ZM416 142.885L406 137.111V148.658L416 142.885ZM377 143.885H407V141.885H377V143.885Z" fill="#C4C4C4"/>
<path d="M288 162.885L282.226 172.885L293.774 172.885L288 162.885ZM288 210.885L293.774 200.885L282.226 200.885L288 210.885ZM287 171.885L287 201.885L289 201.885L289 171.885L287 171.885Z" fill="#C4C4C4"/>
<path d="M20.5996 214.36H17.8896V216.431H20.458V217.158H17.8896V220H17.001V213.618H20.5996V214.36ZM22.4795 215.098H23.2559L23.2803 216.001C23.57 215.653 23.8548 215.4 24.1348 215.244C24.418 215.088 24.7028 215.01 24.9893 215.01C25.4971 215.01 25.8812 215.174 26.1416 215.503C26.4053 215.832 26.5273 216.32 26.5078 216.968H25.6484C25.6582 216.538 25.5947 216.227 25.458 216.035C25.3245 215.84 25.1276 215.742 24.8672 215.742C24.7533 215.742 24.6377 215.763 24.5205 215.806C24.4066 215.845 24.2878 215.91 24.1641 216.001C24.0436 216.089 23.915 216.203 23.7783 216.343C23.6416 216.483 23.4951 216.652 23.3389 216.851V220H22.4795V215.098ZM32.0449 217.51C32.0449 217.891 31.9912 218.241 31.8838 218.56C31.7764 218.875 31.6217 219.147 31.4199 219.375C31.2181 219.6 30.9723 219.775 30.6826 219.902C30.3929 220.026 30.0641 220.088 29.6963 220.088C29.3447 220.088 29.029 220.034 28.749 219.927C28.4723 219.816 28.2363 219.655 28.041 219.443C27.849 219.232 27.7008 218.97 27.5967 218.657C27.4958 218.345 27.4453 217.985 27.4453 217.578C27.4453 217.197 27.499 216.851 27.6064 216.538C27.7139 216.222 27.8685 215.952 28.0703 215.728C28.2721 215.5 28.5179 215.324 28.8076 215.2C29.0973 215.073 29.4261 215.01 29.7939 215.01C30.1455 215.01 30.4596 215.065 30.7363 215.176C31.0163 215.283 31.2523 215.443 31.4443 215.654C31.6396 215.863 31.7878 216.123 31.8887 216.436C31.9928 216.748 32.0449 217.106 32.0449 217.51ZM31.1758 217.549C31.1758 217.246 31.1416 216.982 31.0732 216.758C31.0081 216.53 30.9137 216.341 30.79 216.191C30.6663 216.038 30.515 215.924 30.3359 215.85C30.1602 215.771 29.9632 215.732 29.7451 215.732C29.4912 215.732 29.2731 215.783 29.0908 215.884C28.9118 215.981 28.7637 216.113 28.6465 216.279C28.5326 216.445 28.4479 216.639 28.3926 216.86C28.3405 217.078 28.3145 217.308 28.3145 217.549C28.3145 217.852 28.347 218.117 28.4121 218.345C28.4805 218.573 28.5765 218.763 28.7002 218.916C28.8239 219.066 28.9736 219.18 29.1494 219.258C29.3252 219.333 29.5238 219.37 29.7451 219.37C29.999 219.37 30.2155 219.321 30.3945 219.224C30.5768 219.123 30.7249 218.989 30.8389 218.823C30.9561 218.657 31.0407 218.465 31.0928 218.247C31.1481 218.026 31.1758 217.793 31.1758 217.549ZM33.2754 215.098H34.0322L34.0664 215.889C34.2096 215.719 34.348 215.579 34.4814 215.469C34.6149 215.355 34.7451 215.264 34.8721 215.195C35.0023 215.127 35.1341 215.08 35.2676 215.054C35.401 215.024 35.5394 215.01 35.6826 215.01C36.1872 215.01 36.568 215.16 36.8252 215.459C37.0856 215.755 37.2158 216.203 37.2158 216.802V220H36.3662V216.87C36.3662 216.486 36.2946 216.203 36.1514 216.021C36.0081 215.835 35.7949 215.742 35.5117 215.742C35.4076 215.742 35.305 215.758 35.2041 215.791C35.1064 215.82 35.0039 215.874 34.8965 215.952C34.7891 216.027 34.6719 216.13 34.5449 216.26C34.4212 216.39 34.2812 216.553 34.125 216.748V220H33.2754V215.098ZM42.7236 219.932C42.5316 219.98 42.333 220.015 42.1279 220.034C41.9229 220.057 41.7145 220.068 41.5029 220.068C40.8877 220.068 40.4287 219.93 40.126 219.653C39.8232 219.373 39.6719 218.945 39.6719 218.369V215.811H38.2998V215.098H39.6719V213.75L40.5215 213.53V215.098H42.7236V215.811H40.5215V218.301C40.5215 218.652 40.6143 218.916 40.7998 219.092C40.9886 219.264 41.2653 219.351 41.6299 219.351C41.7861 219.351 41.957 219.339 42.1426 219.316C42.3281 219.29 42.5218 219.251 42.7236 219.199V219.932ZM47.6992 217.739H44.7793V216.938H47.6992V217.739ZM53.9102 217.29C53.9102 217.41 53.9085 217.511 53.9053 217.593C53.902 217.674 53.8971 217.751 53.8906 217.822H50.4482C50.4482 218.324 50.5882 218.709 50.8682 218.979C51.1481 219.246 51.5518 219.38 52.0791 219.38C52.2223 219.38 52.3656 219.375 52.5088 219.365C52.652 219.352 52.7904 219.336 52.9238 219.316C53.0573 219.297 53.1842 219.276 53.3047 219.253C53.4284 219.227 53.5423 219.199 53.6465 219.17V219.868C53.4154 219.933 53.1533 219.985 52.8604 220.024C52.5706 220.067 52.2695 220.088 51.957 220.088C51.5371 220.088 51.1758 220.031 50.873 219.917C50.5703 219.803 50.3213 219.639 50.126 219.424C49.9339 219.206 49.7907 218.94 49.6963 218.628C49.6051 218.312 49.5596 217.956 49.5596 217.559C49.5596 217.214 49.6084 216.888 49.7061 216.582C49.807 216.273 49.9518 216.003 50.1406 215.771C50.3327 215.537 50.5671 215.352 50.8438 215.215C51.1204 215.078 51.4346 215.01 51.7861 215.01C52.1279 215.01 52.4307 215.063 52.6943 215.171C52.958 215.278 53.1794 215.431 53.3584 215.63C53.5407 215.825 53.6774 216.064 53.7686 216.348C53.863 216.628 53.9102 216.942 53.9102 217.29ZM53.0264 217.168C53.0361 216.95 53.015 216.751 52.9629 216.572C52.9108 216.39 52.8294 216.234 52.7188 216.104C52.6113 215.973 52.4762 215.872 52.3135 215.801C52.1507 215.726 51.9619 215.688 51.7471 215.688C51.5615 215.688 51.3923 215.724 51.2393 215.796C51.0863 215.868 50.9544 215.968 50.8438 216.099C50.7331 216.229 50.6436 216.385 50.5752 216.567C50.5068 216.75 50.4645 216.95 50.4482 217.168H53.0264ZM55.2676 215.098H56.0244L56.0586 215.889C56.2018 215.719 56.3402 215.579 56.4736 215.469C56.6071 215.355 56.7373 215.264 56.8643 215.195C56.9945 215.127 57.1263 215.08 57.2598 215.054C57.3932 215.024 57.5316 215.01 57.6748 215.01C58.1794 215.01 58.5602 215.16 58.8174 215.459C59.0778 215.755 59.208 216.203 59.208 216.802V220H58.3584V216.87C58.3584 216.486 58.2868 216.203 58.1436 216.021C58.0003 215.835 57.7871 215.742 57.5039 215.742C57.3997 215.742 57.2972 215.758 57.1963 215.791C57.0986 215.82 56.9961 215.874 56.8887 215.952C56.7812 216.027 56.6641 216.13 56.5371 216.26C56.4134 216.39 56.2734 216.553 56.1172 216.748V220H55.2676V215.098ZM60.5166 217.651C60.5166 217.235 60.5736 216.865 60.6875 216.543C60.8014 216.217 60.9626 215.944 61.1709 215.723C61.3825 215.498 61.6348 215.329 61.9277 215.215C62.224 215.098 62.5527 215.039 62.9141 215.039C63.0703 215.039 63.2233 215.049 63.373 215.068C63.526 215.088 63.6758 215.119 63.8223 215.161V213.101H64.6768V220H63.915L63.8857 219.072C63.6481 219.417 63.391 219.673 63.1143 219.839C62.8376 220.005 62.5381 220.088 62.2158 220.088C61.9359 220.088 61.6885 220.029 61.4736 219.912C61.262 219.795 61.0846 219.631 60.9414 219.419C60.8014 219.204 60.6956 218.947 60.624 218.647C60.5524 218.348 60.5166 218.016 60.5166 217.651ZM61.3857 217.598C61.3857 218.19 61.472 218.633 61.6445 218.926C61.8203 219.215 62.0677 219.36 62.3867 219.36C62.6016 219.36 62.8278 219.264 63.0654 219.072C63.3063 218.88 63.5586 218.595 63.8223 218.218V215.942C63.6823 215.877 63.5277 215.828 63.3584 215.796C63.1891 215.76 63.0215 215.742 62.8555 215.742C62.3932 215.742 62.0319 215.892 61.7715 216.191C61.5143 216.491 61.3857 216.96 61.3857 217.598ZM20.9609 232.091C20.9609 232.397 20.9007 232.669 20.7803 232.906C20.6631 233.141 20.4938 233.339 20.2725 233.502C20.0544 233.665 19.7891 233.788 19.4766 233.873C19.1673 233.958 18.8223 234 18.4414 234H16.7715V227.618H18.5977C20.0202 227.618 20.7314 228.136 20.7314 229.171C20.7314 229.516 20.6484 229.812 20.4824 230.06C20.3197 230.307 20.0527 230.491 19.6816 230.611C19.8542 230.644 20.0169 230.699 20.1699 230.777C20.3262 230.855 20.4629 230.956 20.5801 231.08C20.6973 231.204 20.79 231.35 20.8584 231.52C20.9268 231.689 20.9609 231.879 20.9609 232.091ZM19.8281 229.288C19.8281 229.158 19.8086 229.036 19.7695 228.922C19.7305 228.805 19.6621 228.705 19.5645 228.624C19.4668 228.539 19.335 228.473 19.1689 228.424C19.0029 228.375 18.793 228.351 18.5391 228.351H17.6406V230.348H18.5098C18.7083 230.348 18.8874 230.326 19.0469 230.284C19.2096 230.242 19.348 230.177 19.4619 230.089C19.5791 230.001 19.6686 229.892 19.7305 229.762C19.7956 229.628 19.8281 229.47 19.8281 229.288ZM20.0381 232.12C20.0381 231.957 20.0039 231.811 19.9355 231.681C19.8672 231.55 19.7679 231.441 19.6377 231.354C19.5075 231.262 19.348 231.192 19.1592 231.144C18.9736 231.095 18.7637 231.07 18.5293 231.07H17.6406V233.268H18.5586C19.0566 233.268 19.4277 233.175 19.6719 232.989C19.916 232.804 20.0381 232.514 20.0381 232.12ZM25.4287 234L25.4092 233.341C25.1423 233.604 24.8704 233.795 24.5938 233.912C24.3203 234.029 24.0322 234.088 23.7295 234.088C23.4495 234.088 23.2103 234.052 23.0117 233.98C22.8132 233.909 22.6488 233.811 22.5186 233.688C22.3916 233.561 22.2972 233.412 22.2354 233.243C22.1768 233.074 22.1475 232.89 22.1475 232.691C22.1475 232.2 22.3298 231.816 22.6943 231.539C23.0622 231.259 23.6042 231.119 24.3203 231.119H25.3359V230.689C25.3359 230.4 25.2432 230.169 25.0576 229.996C24.8721 229.82 24.5889 229.732 24.208 229.732C23.9313 229.732 23.6579 229.763 23.3877 229.825C23.1208 229.887 22.8441 229.975 22.5576 230.089V229.322C22.665 229.283 22.7839 229.246 22.9141 229.21C23.0475 229.171 23.1875 229.137 23.334 229.107C23.4805 229.078 23.6335 229.055 23.793 229.039C23.9525 229.02 24.1136 229.01 24.2764 229.01C24.5726 229.01 24.8395 229.042 25.0771 229.107C25.3148 229.173 25.515 229.272 25.6777 229.405C25.8438 229.539 25.9707 229.706 26.0586 229.908C26.1465 230.11 26.1904 230.348 26.1904 230.621V234H25.4287ZM25.3359 231.769H24.2568C24.0452 231.769 23.863 231.79 23.71 231.832C23.557 231.874 23.4316 231.935 23.334 232.013C23.2363 232.091 23.1631 232.185 23.1143 232.296C23.0687 232.403 23.0459 232.525 23.0459 232.662C23.0459 232.757 23.0605 232.848 23.0898 232.936C23.1191 233.02 23.1663 233.097 23.2314 233.165C23.2965 233.23 23.3812 233.282 23.4854 233.321C23.5895 233.36 23.7165 233.38 23.8662 233.38C24.0615 233.38 24.2845 233.321 24.5352 233.204C24.7891 233.084 25.056 232.895 25.3359 232.638V231.769ZM31.5859 233.819C31.3646 233.904 31.1367 233.966 30.9023 234.005C30.6712 234.047 30.432 234.068 30.1846 234.068C29.4098 234.068 28.8125 233.858 28.3926 233.438C27.9759 233.019 27.7676 232.405 27.7676 231.598C27.7676 231.21 27.8278 230.859 27.9482 230.543C28.0687 230.227 28.238 229.957 28.4561 229.732C28.6742 229.508 28.9346 229.335 29.2373 229.215C29.54 229.091 29.8737 229.029 30.2383 229.029C30.4922 229.029 30.7298 229.047 30.9512 229.083C31.1725 229.119 31.3841 229.177 31.5859 229.259V230.069C31.3743 229.959 31.1579 229.879 30.9365 229.83C30.7184 229.778 30.4922 229.752 30.2578 229.752C30.0397 229.752 29.833 229.794 29.6377 229.879C29.4456 229.96 29.2764 230.079 29.1299 230.235C28.9834 230.392 28.8678 230.582 28.7832 230.807C28.6986 231.031 28.6562 231.285 28.6562 231.568C28.6562 232.161 28.7995 232.605 29.0859 232.901C29.3757 233.194 29.776 233.341 30.2871 233.341C30.5182 233.341 30.7412 233.315 30.9561 233.263C31.1742 233.211 31.3841 233.132 31.5859 233.028V233.819ZM37.6846 234H36.5176L34.2324 231.373V234H33.3828V227.101H34.2324V231.339L36.4346 229.098H37.5576L35.2578 231.358L37.6846 234ZM42.9141 231.29C42.9141 231.41 42.9124 231.511 42.9092 231.593C42.9059 231.674 42.901 231.751 42.8945 231.822H39.4521C39.4521 232.324 39.5921 232.709 39.8721 232.979C40.152 233.246 40.5557 233.38 41.083 233.38C41.2262 233.38 41.3695 233.375 41.5127 233.365C41.6559 233.352 41.7943 233.336 41.9277 233.316C42.0612 233.297 42.1882 233.276 42.3086 233.253C42.4323 233.227 42.5462 233.199 42.6504 233.17V233.868C42.4193 233.933 42.1572 233.985 41.8643 234.024C41.5745 234.067 41.2734 234.088 40.9609 234.088C40.541 234.088 40.1797 234.031 39.877 233.917C39.5742 233.803 39.3252 233.639 39.1299 233.424C38.9378 233.206 38.7946 232.94 38.7002 232.628C38.609 232.312 38.5635 231.956 38.5635 231.559C38.5635 231.214 38.6123 230.888 38.71 230.582C38.8109 230.273 38.9557 230.003 39.1445 229.771C39.3366 229.537 39.571 229.352 39.8477 229.215C40.1243 229.078 40.4385 229.01 40.79 229.01C41.1318 229.01 41.4346 229.063 41.6982 229.171C41.9619 229.278 42.1833 229.431 42.3623 229.63C42.5446 229.825 42.6813 230.064 42.7725 230.348C42.8669 230.628 42.9141 230.942 42.9141 231.29ZM42.0303 231.168C42.04 230.95 42.0189 230.751 41.9668 230.572C41.9147 230.39 41.8333 230.234 41.7227 230.104C41.6152 229.973 41.4801 229.872 41.3174 229.801C41.1546 229.726 40.9658 229.688 40.751 229.688C40.5654 229.688 40.3962 229.724 40.2432 229.796C40.0902 229.868 39.9583 229.968 39.8477 230.099C39.737 230.229 39.6475 230.385 39.5791 230.567C39.5107 230.75 39.4684 230.95 39.4521 231.168H42.0303ZM44.2715 229.098H45.0283L45.0625 229.889C45.2057 229.719 45.3441 229.579 45.4775 229.469C45.611 229.355 45.7412 229.264 45.8682 229.195C45.9984 229.127 46.1302 229.08 46.2637 229.054C46.3971 229.024 46.5355 229.01 46.6787 229.01C47.1833 229.01 47.5641 229.16 47.8213 229.459C48.0817 229.755 48.2119 230.203 48.2119 230.802V234H47.3623V230.87C47.3623 230.486 47.2907 230.203 47.1475 230.021C47.0042 229.835 46.791 229.742 46.5078 229.742C46.4036 229.742 46.3011 229.758 46.2002 229.791C46.1025 229.82 46 229.874 45.8926 229.952C45.7852 230.027 45.668 230.13 45.541 230.26C45.4173 230.39 45.2773 230.553 45.1211 230.748V234H44.2715V229.098ZM49.5205 231.651C49.5205 231.235 49.5775 230.865 49.6914 230.543C49.8053 230.217 49.9665 229.944 50.1748 229.723C50.3864 229.498 50.6387 229.329 50.9316 229.215C51.2279 229.098 51.5566 229.039 51.918 229.039C52.0742 229.039 52.2272 229.049 52.377 229.068C52.5299 229.088 52.6797 229.119 52.8262 229.161V227.101H53.6807V234H52.9189L52.8896 233.072C52.652 233.417 52.3949 233.673 52.1182 233.839C51.8415 234.005 51.542 234.088 51.2197 234.088C50.9398 234.088 50.6924 234.029 50.4775 233.912C50.266 233.795 50.0885 233.631 49.9453 233.419C49.8053 233.204 49.6995 232.947 49.6279 232.647C49.5563 232.348 49.5205 232.016 49.5205 231.651ZM50.3896 231.598C50.3896 232.19 50.4759 232.633 50.6484 232.926C50.8242 233.215 51.0716 233.36 51.3906 233.36C51.6055 233.36 51.8317 233.264 52.0693 233.072C52.3102 232.88 52.5625 232.595 52.8262 232.218V229.942C52.6862 229.877 52.5316 229.828 52.3623 229.796C52.193 229.76 52.0254 229.742 51.8594 229.742C51.3971 229.742 51.0358 229.892 50.7754 230.191C50.5182 230.491 50.3896 230.96 50.3896 231.598ZM20.6094 248H16.9814V241.618H20.6094V242.351H17.8506V244.328H20.502V245.061H17.8506V247.258H20.6094V248ZM26.6982 248H25.5703L24.2471 246.13L22.9385 248H21.8398L23.7393 245.539L21.9277 243.098H23.0166L24.3057 244.982L25.5703 243.098H26.6201L24.7793 245.559L26.6982 248ZM31.7275 247.932C31.5355 247.98 31.3369 248.015 31.1318 248.034C30.9268 248.057 30.7184 248.068 30.5068 248.068C29.8916 248.068 29.4326 247.93 29.1299 247.653C28.8271 247.373 28.6758 246.945 28.6758 246.369V243.811H27.3037V243.098H28.6758V241.75L29.5254 241.53V243.098H31.7275V243.811H29.5254V246.301C29.5254 246.652 29.6182 246.916 29.8037 247.092C29.9925 247.264 30.2692 247.351 30.6338 247.351C30.79 247.351 30.9609 247.339 31.1465 247.316C31.332 247.29 31.5257 247.251 31.7275 247.199V247.932ZM37.416 245.29C37.416 245.41 37.4144 245.511 37.4111 245.593C37.4079 245.674 37.403 245.751 37.3965 245.822H33.9541C33.9541 246.324 34.0941 246.709 34.374 246.979C34.654 247.246 35.0576 247.38 35.585 247.38C35.7282 247.38 35.8714 247.375 36.0146 247.365C36.1579 247.352 36.2962 247.336 36.4297 247.316C36.5632 247.297 36.6901 247.276 36.8105 247.253C36.9342 247.227 37.0482 247.199 37.1523 247.17V247.868C36.9212 247.933 36.6592 247.985 36.3662 248.024C36.0765 248.067 35.7754 248.088 35.4629 248.088C35.043 248.088 34.6816 248.031 34.3789 247.917C34.0762 247.803 33.8271 247.639 33.6318 247.424C33.4398 247.206 33.2965 246.94 33.2021 246.628C33.111 246.312 33.0654 245.956 33.0654 245.559C33.0654 245.214 33.1143 244.888 33.2119 244.582C33.3128 244.273 33.4577 244.003 33.6465 243.771C33.8385 243.537 34.0729 243.352 34.3496 243.215C34.6263 243.078 34.9404 243.01 35.292 243.01C35.6338 243.01 35.9365 243.063 36.2002 243.171C36.4639 243.278 36.6852 243.431 36.8643 243.63C37.0465 243.825 37.1833 244.064 37.2744 244.348C37.3688 244.628 37.416 244.942 37.416 245.29ZM36.5322 245.168C36.542 244.95 36.5208 244.751 36.4688 244.572C36.4167 244.39 36.3353 244.234 36.2246 244.104C36.1172 243.973 35.9821 243.872 35.8193 243.801C35.6566 243.726 35.4678 243.688 35.2529 243.688C35.0674 243.688 34.8981 243.724 34.7451 243.796C34.5921 243.868 34.4603 243.968 34.3496 244.099C34.2389 244.229 34.1494 244.385 34.0811 244.567C34.0127 244.75 33.9704 244.95 33.9541 245.168H36.5322ZM38.9736 243.098H39.75L39.7744 244.001C40.0641 243.653 40.349 243.4 40.6289 243.244C40.9121 243.088 41.1969 243.01 41.4834 243.01C41.9912 243.01 42.3753 243.174 42.6357 243.503C42.8994 243.832 43.0215 244.32 43.002 244.968H42.1426C42.1523 244.538 42.0889 244.227 41.9521 244.035C41.8187 243.84 41.6217 243.742 41.3613 243.742C41.2474 243.742 41.1318 243.763 41.0146 243.806C40.9007 243.845 40.7819 243.91 40.6582 244.001C40.5378 244.089 40.4092 244.203 40.2725 244.343C40.1357 244.483 39.9893 244.652 39.833 244.851V248H38.9736V243.098ZM44.2715 243.098H45.0283L45.0625 243.889C45.2057 243.719 45.3441 243.579 45.4775 243.469C45.611 243.355 45.7412 243.264 45.8682 243.195C45.9984 243.127 46.1302 243.08 46.2637 243.054C46.3971 243.024 46.5355 243.01 46.6787 243.01C47.1833 243.01 47.5641 243.16 47.8213 243.459C48.0817 243.755 48.2119 244.203 48.2119 244.802V248H47.3623V244.87C47.3623 244.486 47.2907 244.203 47.1475 244.021C47.0042 243.835 46.791 243.742 46.5078 243.742C46.4036 243.742 46.3011 243.758 46.2002 243.791C46.1025 243.82 46 243.874 45.8926 243.952C45.7852 244.027 45.668 244.13 45.541 244.26C45.4173 244.39 45.2773 244.553 45.1211 244.748V248H44.2715V243.098ZM52.9189 248L52.8994 247.341C52.6325 247.604 52.3607 247.795 52.084 247.912C51.8105 248.029 51.5225 248.088 51.2197 248.088C50.9398 248.088 50.7005 248.052 50.502 247.98C50.3034 247.909 50.139 247.811 50.0088 247.688C49.8818 247.561 49.7874 247.412 49.7256 247.243C49.667 247.074 49.6377 246.89 49.6377 246.691C49.6377 246.2 49.82 245.816 50.1846 245.539C50.5524 245.259 51.0944 245.119 51.8105 245.119H52.8262V244.689C52.8262 244.4 52.7334 244.169 52.5479 243.996C52.3623 243.82 52.0791 243.732 51.6982 243.732C51.4215 243.732 51.1481 243.763 50.8779 243.825C50.611 243.887 50.3343 243.975 50.0479 244.089V243.322C50.1553 243.283 50.2741 243.246 50.4043 243.21C50.5378 243.171 50.6777 243.137 50.8242 243.107C50.9707 243.078 51.1237 243.055 51.2832 243.039C51.4427 243.02 51.6038 243.01 51.7666 243.01C52.0628 243.01 52.3298 243.042 52.5674 243.107C52.805 243.173 53.0052 243.272 53.168 243.405C53.334 243.539 53.4609 243.706 53.5488 243.908C53.6367 244.11 53.6807 244.348 53.6807 244.621V248H52.9189ZM52.8262 245.769H51.7471C51.5355 245.769 51.3532 245.79 51.2002 245.832C51.0472 245.874 50.9219 245.935 50.8242 246.013C50.7266 246.091 50.6533 246.185 50.6045 246.296C50.5589 246.403 50.5361 246.525 50.5361 246.662C50.5361 246.757 50.5508 246.848 50.5801 246.936C50.6094 247.02 50.6566 247.097 50.7217 247.165C50.7868 247.23 50.8714 247.282 50.9756 247.321C51.0798 247.36 51.2067 247.38 51.3564 247.38C51.5518 247.38 51.7747 247.321 52.0254 247.204C52.2793 247.084 52.5462 246.895 52.8262 246.638V245.769ZM56.9375 241.799H55.4873V241.101H57.7969V247.292H59.2568V248H55.3262V247.292H56.9375V241.799ZM70.3506 246.271C70.3506 246.574 70.2887 246.84 70.165 247.067C70.0413 247.295 69.8688 247.486 69.6475 247.639C69.4261 247.788 69.1592 247.901 68.8467 247.976C68.5374 248.05 68.1956 248.088 67.8213 248.088C67.652 248.088 67.4827 248.081 67.3135 248.068C67.1475 248.055 66.9863 248.039 66.8301 248.02C66.6771 248 66.5322 247.977 66.3955 247.951C66.2588 247.925 66.1351 247.897 66.0244 247.868V247.028C66.2686 247.119 66.542 247.191 66.8447 247.243C67.1507 247.295 67.4974 247.321 67.8848 247.321C68.1647 247.321 68.4023 247.3 68.5977 247.258C68.7962 247.212 68.9574 247.147 69.0811 247.062C69.208 246.975 69.2992 246.869 69.3545 246.745C69.4131 246.621 69.4424 246.48 69.4424 246.32C69.4424 246.148 69.3936 246.001 69.2959 245.881C69.2015 245.757 69.0762 245.648 68.9199 245.554C68.7637 245.456 68.5846 245.368 68.3828 245.29C68.1842 245.209 67.9808 245.126 67.7725 245.041C67.5641 244.956 67.359 244.865 67.1572 244.768C66.9587 244.667 66.7812 244.549 66.625 244.416C66.4688 244.279 66.3418 244.12 66.2441 243.938C66.1497 243.755 66.1025 243.539 66.1025 243.288C66.1025 243.07 66.1481 242.855 66.2393 242.644C66.3304 242.432 66.472 242.245 66.6641 242.082C66.8561 241.916 67.1019 241.783 67.4014 241.682C67.7041 241.581 68.0638 241.53 68.4805 241.53C68.5879 241.53 68.7035 241.535 68.8271 241.545C68.9541 241.555 69.0811 241.569 69.208 241.589C69.3382 241.605 69.4652 241.625 69.5889 241.647C69.7158 241.67 69.833 241.695 69.9404 241.721V242.502C69.6898 242.43 69.4391 242.377 69.1885 242.341C68.9378 242.302 68.6953 242.282 68.4609 242.282C67.9629 242.282 67.5967 242.365 67.3623 242.531C67.1279 242.697 67.0107 242.92 67.0107 243.2C67.0107 243.373 67.0579 243.521 67.1523 243.645C67.25 243.768 67.377 243.879 67.5332 243.977C67.6895 244.074 67.8669 244.164 68.0654 244.245C68.2673 244.323 68.4723 244.405 68.6807 244.489C68.889 244.574 69.0924 244.667 69.291 244.768C69.4928 244.868 69.6719 244.989 69.8281 245.129C69.9844 245.266 70.1097 245.427 70.2041 245.612C70.3018 245.798 70.3506 246.018 70.3506 246.271ZM75.9023 245.29C75.9023 245.41 75.9007 245.511 75.8975 245.593C75.8942 245.674 75.8893 245.751 75.8828 245.822H72.4404C72.4404 246.324 72.5804 246.709 72.8604 246.979C73.1403 247.246 73.5439 247.38 74.0713 247.38C74.2145 247.38 74.3577 247.375 74.501 247.365C74.6442 247.352 74.7826 247.336 74.916 247.316C75.0495 247.297 75.1764 247.276 75.2969 247.253C75.4206 247.227 75.5345 247.199 75.6387 247.17V247.868C75.4076 247.933 75.1455 247.985 74.8525 248.024C74.5628 248.067 74.2617 248.088 73.9492 248.088C73.5293 248.088 73.168 248.031 72.8652 247.917C72.5625 247.803 72.3135 247.639 72.1182 247.424C71.9261 247.206 71.7829 246.94 71.6885 246.628C71.5973 246.312 71.5518 245.956 71.5518 245.559C71.5518 245.214 71.6006 244.888 71.6982 244.582C71.7992 244.273 71.944 244.003 72.1328 243.771C72.3249 243.537 72.5592 243.352 72.8359 243.215C73.1126 243.078 73.4268 243.01 73.7783 243.01C74.1201 243.01 74.4229 243.063 74.6865 243.171C74.9502 243.278 75.1715 243.431 75.3506 243.63C75.5329 243.825 75.6696 244.064 75.7607 244.348C75.8551 244.628 75.9023 244.942 75.9023 245.29ZM75.0186 245.168C75.0283 244.95 75.0072 244.751 74.9551 244.572C74.903 244.39 74.8216 244.234 74.7109 244.104C74.6035 243.973 74.4684 243.872 74.3057 243.801C74.1429 243.726 73.9541 243.688 73.7393 243.688C73.5537 243.688 73.3844 243.724 73.2314 243.796C73.0785 243.868 72.9466 243.968 72.8359 244.099C72.7253 244.229 72.6357 244.385 72.5674 244.567C72.499 244.75 72.4567 244.95 72.4404 245.168H75.0186ZM77.46 243.098H78.2363L78.2607 244.001C78.5505 243.653 78.8353 243.4 79.1152 243.244C79.3984 243.088 79.6833 243.01 79.9697 243.01C80.4775 243.01 80.8617 243.174 81.1221 243.503C81.3857 243.832 81.5078 244.32 81.4883 244.968H80.6289C80.6387 244.538 80.5752 244.227 80.4385 244.035C80.305 243.84 80.1081 243.742 79.8477 243.742C79.7337 243.742 79.6182 243.763 79.501 243.806C79.387 243.845 79.2682 243.91 79.1445 244.001C79.0241 244.089 78.8955 244.203 78.7588 244.343C78.6221 244.483 78.4756 244.652 78.3193 244.851V248H77.46V243.098ZM82.2988 243.098H83.2656L84.4668 246.34L84.7256 247.131L84.9941 246.32L86.1855 243.098H87.1182L85.1943 248H84.2178L82.2988 243.098ZM89.9258 243.801H88.4756V243.098H90.7852V247.292H92.2451V248H88.3145V247.292H89.9258V243.801ZM90.2236 241.042C90.318 241.042 90.4059 241.06 90.4873 241.096C90.5687 241.128 90.6387 241.175 90.6973 241.237C90.7591 241.299 90.8063 241.371 90.8389 241.452C90.8747 241.53 90.8926 241.617 90.8926 241.711C90.8926 241.802 90.8747 241.888 90.8389 241.97C90.8063 242.051 90.7591 242.123 90.6973 242.185C90.6387 242.246 90.5687 242.295 90.4873 242.331C90.4059 242.364 90.318 242.38 90.2236 242.38C90.1292 242.38 90.0413 242.364 89.96 242.331C89.8786 242.295 89.807 242.246 89.7451 242.185C89.6865 242.123 89.6393 242.051 89.6035 241.97C89.571 241.888 89.5547 241.802 89.5547 241.711C89.5547 241.617 89.571 241.53 89.6035 241.452C89.6393 241.371 89.6865 241.299 89.7451 241.237C89.807 241.175 89.8786 241.128 89.96 241.096C90.0413 241.06 90.1292 241.042 90.2236 241.042ZM97.5625 247.819C97.3411 247.904 97.1133 247.966 96.8789 248.005C96.6478 248.047 96.4085 248.068 96.1611 248.068C95.3864 248.068 94.7891 247.858 94.3691 247.438C93.9525 247.019 93.7441 246.405 93.7441 245.598C93.7441 245.21 93.8044 244.859 93.9248 244.543C94.0452 244.227 94.2145 243.957 94.4326 243.732C94.6507 243.508 94.9111 243.335 95.2139 243.215C95.5166 243.091 95.8503 243.029 96.2148 243.029C96.4688 243.029 96.7064 243.047 96.9277 243.083C97.1491 243.119 97.3607 243.177 97.5625 243.259V244.069C97.3509 243.959 97.1344 243.879 96.9131 243.83C96.695 243.778 96.4688 243.752 96.2344 243.752C96.0163 243.752 95.8096 243.794 95.6143 243.879C95.4222 243.96 95.2529 244.079 95.1064 244.235C94.96 244.392 94.8444 244.582 94.7598 244.807C94.6751 245.031 94.6328 245.285 94.6328 245.568C94.6328 246.161 94.776 246.605 95.0625 246.901C95.3522 247.194 95.7526 247.341 96.2637 247.341C96.4948 247.341 96.7178 247.315 96.9326 247.263C97.1507 247.211 97.3607 247.132 97.5625 247.028V247.819ZM103.393 245.29C103.393 245.41 103.391 245.511 103.388 245.593C103.384 245.674 103.38 245.751 103.373 245.822H99.9307C99.9307 246.324 100.071 246.709 100.351 246.979C100.631 247.246 101.034 247.38 101.562 247.38C101.705 247.38 101.848 247.375 101.991 247.365C102.134 247.352 102.273 247.336 102.406 247.316C102.54 247.297 102.667 247.276 102.787 247.253C102.911 247.227 103.025 247.199 103.129 247.17V247.868C102.898 247.933 102.636 247.985 102.343 248.024C102.053 248.067 101.752 248.088 101.439 248.088C101.02 248.088 100.658 248.031 100.355 247.917C100.053 247.803 99.8037 247.639 99.6084 247.424C99.4163 247.206 99.2731 246.94 99.1787 246.628C99.0876 246.312 99.042 245.956 99.042 245.559C99.042 245.214 99.0908 244.888 99.1885 244.582C99.2894 244.273 99.4342 244.003 99.623 243.771C99.8151 243.537 100.049 243.352 100.326 243.215C100.603 243.078 100.917 243.01 101.269 243.01C101.61 243.01 101.913 243.063 102.177 243.171C102.44 243.278 102.662 243.431 102.841 243.63C103.023 243.825 103.16 244.064 103.251 244.348C103.345 244.628 103.393 244.942 103.393 245.29ZM102.509 245.168C102.519 244.95 102.497 244.751 102.445 244.572C102.393 244.39 102.312 244.234 102.201 244.104C102.094 243.973 101.959 243.872 101.796 243.801C101.633 243.726 101.444 243.688 101.229 243.688C101.044 243.688 100.875 243.724 100.722 243.796C100.569 243.868 100.437 243.968 100.326 244.099C100.215 244.229 100.126 244.385 100.058 244.567C99.9893 244.75 99.9469 244.95 99.9307 245.168H102.509Z" fill="#C4C4C4"/>
<rect x="1" y="211.885" width="11" height="10" fill="#6A9953"/>
<rect x="1" y="225.885" width="11" height="10" fill="#FFAFAF"/>
<rect x="1" y="239.885" width="11" height="10" fill="#3EA6FF"/>
</svg>
