<svg width="500" height="385" viewBox="0 0 500 385" fill="none" xmlns="http://www.w3.org/2000/svg">
    <path
        d="M479.755 1.79694H17.9854C9.04553 1.79694 1.79834 9.03753 1.79834 17.9693V313.557C1.79834 322.488 9.04553 329.729 17.9854 329.729H479.755C488.695 329.729 495.942 322.488 495.942 313.557V17.9693C495.942 9.03753 488.695 1.79694 479.755 1.79694Z"
        stroke="currentColor" />
    <path d="M472.715 25.0037H28.3447V306.522H472.715V25.0037Z" stroke="currentColor" />
    <path
        d="M315.446 330.634C328.29 343.116 336.389 359.189 337.362 376.84C337.427 378.03 337.46 379.227 337.46 380.434H158.273C158.273 379.227 158.307 378.03 158.372 376.84C159.345 359.189 167.443 343.116 180.288 330.634"
        stroke="currentColor" stroke-linecap="square" />
    <path d="M118.705 43.1262H39.5684V61.0955H118.705V43.1262Z" fill="currentColor" />
    <path d="M118.705 143.754H68.3452V161.723H118.705V143.754Z" fill="currentColor" />
    <path d="M118.705 172.505H68.3452V190.474H118.705V172.505Z" fill="currentColor" />
    <path d="M118.705 201.256H68.3452V219.225H118.705V201.256Z" fill="currentColor" />
    <path d="M118.705 79.0647H61.1509V86.2524H118.705V79.0647Z" fill="currentColor" />
    <path d="M118.705 97.0339H61.1509V104.222H118.705V97.0339Z" fill="currentColor" />
    <path d="M118.705 115.003H61.1509V122.191H118.705V115.003Z" fill="currentColor" />
    <path d="M46.7626 115.003H39.5684V122.191H46.7626V115.003Z" fill="currentColor" />
    <path d="M46.7626 97.0339H39.5684V104.222H46.7626V97.0339Z" fill="currentColor" />
    <path d="M46.7626 79.0647H39.5684V86.2524H46.7626V79.0647Z" fill="currentColor" />
    <path
        d="M48.5612 161.723C53.5278 161.723 57.554 157.701 57.554 152.739C57.554 147.777 53.5278 143.754 48.5612 143.754C43.5946 143.754 39.5684 147.777 39.5684 152.739C39.5684 157.701 43.5946 161.723 48.5612 161.723Z"
        fill="currentColor" />
    <path
        d="M48.5612 190.474C53.5278 190.474 57.554 186.452 57.554 181.49C57.554 176.527 53.5278 172.505 48.5612 172.505C43.5946 172.505 39.5684 176.527 39.5684 181.49C39.5684 186.452 43.5946 190.474 48.5612 190.474Z"
        fill="currentColor" />
    <path
        d="M48.5612 219.225C53.5278 219.225 57.554 215.202 57.554 210.24C57.554 205.278 53.5278 201.256 48.5612 201.256C43.5946 201.256 39.5684 205.278 39.5684 210.24C39.5684 215.202 43.5946 219.225 48.5612 219.225Z"
        fill="currentColor" />
    <path fill-rule="evenodd" clip-rule="evenodd"
        d="M129.497 25.157H471.223V305.477H129.497V25.157ZM143.885 35.9385H381.295V53.9078H143.885V35.9385ZM453.238 104.222H143.885V115.003H453.238V104.222ZM143.885 147.348H194.245V204.849H143.885V147.348ZM212.23 247.976H143.885V280.32H212.23V247.976ZM262.59 247.976H330.935V280.32H262.59V247.976ZM456.835 247.976H388.489V280.32H456.835V247.976ZM233.813 147.348H284.173V204.849H233.813V147.348ZM374.101 147.348H320.144V204.849H374.101V147.348ZM402.878 147.348H456.835V204.849H402.878V147.348ZM404.676 53.9078C409.644 53.9078 413.669 49.8852 413.669 44.9232C413.669 39.9611 409.644 35.9385 404.676 35.9385C399.709 35.9385 395.684 39.9611 395.684 44.9232C395.684 49.8852 399.709 53.9078 404.676 53.9078ZM438.849 44.9232C438.849 49.8852 434.824 53.9078 429.856 53.9078C424.889 53.9078 420.863 49.8852 420.863 44.9232C420.863 39.9611 424.889 35.9385 429.856 35.9385C434.824 35.9385 438.849 39.9611 438.849 44.9232ZM455.036 53.9078C460.004 53.9078 464.029 49.8852 464.029 44.9232C464.029 39.9611 460.004 35.9385 455.036 35.9385C450.069 35.9385 446.043 39.9611 446.043 44.9232C446.043 49.8852 450.069 53.9078 455.036 53.9078Z"
        fill="currentColor" />
</svg>