<svg width="16" height="16" viewBox="0 0 16 16" fill="none" xmlns="http://www.w3.org/2000/svg">
<rect width="2.13333" height="16" rx="1.06667" fill="currentColor"/>
<path opacity="0.99" d="M9.6001 2.13342L9.6001 8.96454e-05L16.0001 8.93656e-05L16.0001 2.13342L9.6001 2.13342Z" fill="currentColor"/>
<path opacity="0.99" d="M1.06667 2.13342C0.477564 2.13342 -2.08749e-08 1.65586 -4.66255e-08 1.06676V1.06676C-7.2376e-08 0.477653 0.477563 8.98629e-05 1.06667 8.98372e-05L7.46667 8.95574e-05L7.46667 2.13342L1.06667 2.13342Z" fill="currentColor"/>
<path d="M16 6.40002L13.8667 6.40002L13.8667 2.4982e-05L16 2.47955e-05L16 6.40002Z" fill="currentColor"/>
<path d="M16 14.9333C16 15.5224 15.5224 16 14.9333 16V16C14.3442 16 13.8667 15.5224 13.8667 14.9333L13.8667 8.53333L16 8.53333L16 14.9333Z" fill="currentColor"/>
<rect x="16" y="13.8666" width="2.13333" height="16" rx="1.06667" transform="rotate(90 16 13.8666)" fill="currentColor"/>
<rect x="14.3125" y="0.384033" width="2.13333" height="11.1737" transform="rotate(45 14.3125 0.384033)" fill="currentColor"/>
</svg>
